<svg xmlns="http://www.w3.org/2000/svg" xmlns:xlink="http://www.w3.org/1999/xlink" width="238" height="246" viewBox="0 0 238 246">
  <defs>
    <circle id="index_icon02-a" cx="130" cy="130" r="130"/>
  </defs>
  <g fill="none" fill-rule="evenodd" transform="translate(-8 -14)">
    <mask id="index_icon02-b" fill="#fff">
      <use xlink:href="#index_icon02-a"/>
    </mask>
    <g mask="url(#index_icon02-b)">
      <g transform="rotate(16 72.616 183.346)">
        <polygon fill="#FFF" fill-rule="nonzero" points="181.871 260.37 141.366 236.8 190.366 213.37"/>
        <path fill="#990B27" fill-rule="nonzero" d="M140.528308,180.285013 C152.294033,176.284721 159.754523,175.357998 162.909778,177.504846 C166.413621,180.32795 171.426812,185.093951 178.186534,191.867255 C182.662545,196.32548 186.870854,201.042405 190.789587,205.99351 C203.087177,221.651184 206.889296,235.856157 202.195943,248.608431 C198.023675,259.460744 188.956808,267.157192 174.909093,271.611901 C161.166841,276.098812 148.459571,275.866237 136.787282,270.914175 C124.248914,265.461183 117.747938,255.886244 117.241229,242.006875 C117.241229,241.899533 117.241229,241.899533 117.241229,241.835127 C116.54046,234.750531 116.098437,226.807196 115.82891,217.790437 C115.344313,210.151374 116.37368,202.492006 118.858387,195.248539 C121.251781,189.32324 128.49665,184.342554 140.517527,180.220607 M138.943493,175.733696 C125.079056,180.478229 116.928578,186.360591 114.39503,193.573998 C111.829139,200.390239 110.71869,208.440916 111.085246,217.876311 C111.343991,226.89307 111.829139,234.943747 112.476002,242.103483 C113.025836,257.968686 120.475545,269.057152 134.835911,275.186402 L134.835911,275.186402 C147.492869,280.671597 161.357306,280.972155 176.332192,276.12028 C191.94316,271.107392 202.077352,262.41266 206.648519,250.207832 C212.125295,236.092311 208.125524,220.345185 194.422803,202.97719 C190.406398,197.892636 186.086159,193.053474 181.485536,188.48597 C176.535302,183.302127 171.309789,178.385963 165.831444,173.758597 C161.928702,170.237767 152.991208,170.924758 138.878806,175.744431"/>
        <path fill="#D56E45" fill-rule="nonzero" d="M162.826121,176.693474 C159.679783,174.535395 152.257285,175.466966 140.558627,179.488187 C128.598965,183.620908 121.39099,188.627651 119.02051,194.59474 C116.539335,201.87407 115.511416,209.574631 115.995735,217.25457 C116.263889,226.307711 116.703661,234.303394 117.400861,241.425055 C117.400861,241.489797 117.400861,241.489797 117.400861,241.597701 C117.90499,255.560472 124.372861,265.174714 136.847377,270.656235 C148.453075,275.619817 161.095635,275.853609 174.775056,271.357611 C188.719055,266.879597 197.771929,259.142883 201.92295,248.223003 C206.628156,235.411208 202.8454,221.135515 190.57468,205.395925 C186.68172,200.414023 182.494542,195.672081 178.035807,191.195765 C171.310508,184.387026 166.322847,179.596091 162.836847,176.758217"/>
        <path fill="#D82B1C" fill-rule="nonzero" d="M182.8596,47.1959787 C181.401922,46.5807233 179.944244,46.0302316 178.443375,45.4905339 C175.376851,44.4327264 172.288733,43.4936524 169.179019,42.6733118 C166.630781,42.0580564 164.168924,41.5939164 161.620687,41.1945401 C158.25183,40.7196061 154.872176,40.2446721 151.460129,39.8452958 C148.059557,39.4413175 144.637678,39.2430672 141.21319,39.2516283 C141.051225,39.2516283 140.921654,39.2516283 140.75969,39.2516283 C142.453942,32.809334 142.010623,25.9913443 139.496369,19.8225103 C136.330177,11.7981489 129.857076,5.52786146 121.734288,2.61694687 C113.420782,-0.678476972 104.138429,-0.538706538 95.9279821,3.00552923 C87.60412,6.19743615 80.8941392,12.5711148 77.2804967,20.7184085 C75.9191769,23.580001 75.0086202,26.6347926 74.5810924,29.7745363 L73.3933545,28.9326078 C71.4825102,27.7665119 69.4470803,26.8179324 67.3250934,26.1045917 C64.6679704,25.2123341 61.930564,24.579727 59.151297,24.2156497 C55.9170184,23.7895496 52.6349688,23.8916232 49.4334413,24.5178804 C46.6897231,24.9846489 44.0135639,25.7857742 41.4647996,26.9033444 C38.8895944,27.9248401 36.4664215,29.293995 34.2627888,30.9726652 C31.6398295,32.7820931 29.3217285,34.9973875 27.3955041,37.5353895 C25.7063769,39.7062868 24.2852337,42.0728474 23.162838,44.5838418 C21.8209012,47.5176782 20.960468,50.6484469 20.6146003,53.8558486 C20.2229947,56.9603766 20.3507099,60.1084004 20.9925169,63.1710313 C21.5087348,65.8924118 22.379983,68.5343016 23.5839451,71.0290301 C24.949954,73.8838642 26.7411248,76.5151185 28.8963729,78.8330592 C30.2520696,80.2867247 31.7952817,81.5535443 33.4853603,82.6001493 C31.7469439,84.337976 30.0193251,86.0865966 28.356492,87.8675991 C26.6936589,89.6486016 25.0200282,91.440398 23.4327784,93.2645763 C21.0896955,96.0170347 18.8329934,98.8558447 16.6842675,101.89974 C14.9998392,104.306792 13.4449823,106.70305 11.9765063,109.110101 C10.3352685,111.927324 8.87759011,114.733752 7.48469745,117.648119 C6.18641127,120.349453 5.02950452,123.116441 4.01866225,125.937876 C3.05747228,128.598644 2.24992088,131.312394 1.59999594,134.065724 C0.204636468,139.988407 -0.207566512,146.100069 0.379865162,152.156392 C0.62035779,155.432945 1.14053629,158.682958 1.93472208,161.870951 C2.73810689,165.135124 3.84052064,168.318393 5.2279954,171.380425 C6.59714193,174.432452 8.20748815,177.370518 10.0437328,180.166704 C11.8694483,182.886715 13.9404363,185.433925 16.2307676,187.776441 C18.5404253,190.168511 21.0711281,192.336949 23.7890998,194.252814 C26.5935591,196.348159 29.5575299,198.221215 32.6539438,199.854876 C35.2622146,201.276817 37.9600962,202.52795 40.7305616,203.600379 C43.6363418,204.764148 46.6070528,205.758854 49.6277984,206.57951 C52.8238932,207.493398 56.1027697,208.274161 59.4644279,208.921798 C62.822487,209.569435 66.1913436,210.001194 69.5494026,210.45454 C72.9074617,210.907886 76.3842945,211.091383 79.8395321,211.199323 C83.2947697,211.307262 86.7392096,211.199323 90.172852,211.026619 C93.7792562,210.81074 97.2992795,210.497716 100.722124,210.044369 C104.306933,209.547848 107.870147,208.964974 111.400968,208.241779 C114.124128,207.72581 116.819713,207.073757 119.477586,206.288073 C122.144597,205.564878 124.876395,204.755332 127.629787,203.967373 C130.383179,203.179414 133.104179,202.143195 135.879167,201.117769 C138.654154,200.092343 141.385952,198.958978 144.106951,197.750055 C146.827951,196.541132 149.50576,195.440149 152.118783,194.155668 C154.731807,192.871188 157.247652,191.619089 159.763497,190.259051 C162.279341,188.899013 164.64402,187.614532 166.9979,186.049409 C170.053626,184.149673 173.141745,182.120409 176.057101,180.091146 C178.972458,178.061882 181.736648,175.773564 184.479243,173.539215 C187.221838,171.304867 189.651302,168.887021 192.134754,166.490763 C194.618206,164.094505 196.907301,161.601102 199.164003,158.934995 C201.420705,156.268888 203.48305,153.635164 205.480609,150.861117 C207.478168,148.087071 209.335358,145.280643 211.062977,142.333893 C212.671822,139.656992 214.302262,136.807389 215.641167,133.946991 C216.12706,132.867595 216.558964,131.896139 217.044857,130.85992 C217.821901,129.132093 218.503182,127.362804 219.085607,125.560088 C220.314418,122.210839 221.267772,118.766933 221.936178,115.262655 C222.618314,111.975352 223.008545,108.634223 223.102321,105.278248 C223.185605,101.931798 222.983316,98.5843429 222.497654,95.2722518 C222.023409,91.9707753 221.249998,88.7192158 220.186964,85.5576928 C219.135661,82.3202638 217.817428,79.1756288 216.245834,76.1561585 C214.680642,73.2011178 212.90527,70.3622079 210.933406,67.6613164 C208.961852,65.0427043 206.749494,62.6142718 204.325264,60.407779 C201.824115,58.0888091 199.141342,55.9736392 196.302634,54.0825217 C193.325108,52.0811556 190.178213,50.3439079 186.897909,48.8906296 C185.548207,48.2645802 184.252493,47.6709127 182.8596,47.1096271"/>
        <path stroke="#D56E45" stroke-width=".51" d="M182.8596,47.1959787 C181.401922,46.5807233 179.944244,46.0302316 178.443375,45.4905339 C175.376851,44.4327264 172.288733,43.4936524 169.179019,42.6733118 C166.630781,42.0580564 164.168924,41.5939164 161.620687,41.1945401 C158.25183,40.7196061 154.872176,40.2446721 151.460129,39.8452958 C148.059557,39.4413175 144.637678,39.2430672 141.21319,39.2516283 C141.051225,39.2516283 140.921654,39.2516283 140.75969,39.2516283 C142.453942,32.809334 142.010623,25.9913443 139.496369,19.8225103 C136.330177,11.7981489 129.857076,5.52786146 121.734288,2.61694687 C113.420782,-0.678476972 104.138429,-0.538706538 95.9279821,3.00552923 C87.60412,6.19743615 80.8941392,12.5711148 77.2804967,20.7184085 C75.9191769,23.580001 75.0086202,26.6347926 74.5810924,29.7745363 L73.3933545,28.9326078 C71.4825102,27.7665119 69.4470803,26.8179324 67.3250934,26.1045917 C64.6679704,25.2123341 61.930564,24.579727 59.151297,24.2156497 C55.9170184,23.7895496 52.6349688,23.8916232 49.4334413,24.5178804 C46.6897231,24.9846489 44.0135639,25.7857742 41.4647996,26.9033444 C38.8895944,27.9248401 36.4664215,29.293995 34.2627888,30.9726652 C31.6398295,32.7820931 29.3217285,34.9973875 27.3955041,37.5353895 C25.7063769,39.7062868 24.2852337,42.0728474 23.162838,44.5838418 C21.8209012,47.5176782 20.960468,50.6484469 20.6146003,53.8558486 C20.2229947,56.9603766 20.3507099,60.1084004 20.9925169,63.1710313 C21.5087348,65.8924118 22.379983,68.5343016 23.5839451,71.0290301 C24.949954,73.8838642 26.7411248,76.5151185 28.8963729,78.8330592 C30.2520696,80.2867247 31.7952817,81.5535443 33.4853603,82.6001493 C31.7469439,84.337976 30.0193251,86.0865966 28.356492,87.8675991 C26.6936589,89.6486016 25.0200282,91.440398 23.4327784,93.2645763 C21.0896955,96.0170347 18.8329934,98.8558447 16.6842675,101.89974 C14.9998392,104.306792 13.4449823,106.70305 11.9765063,109.110101 C10.3352685,111.927324 8.87759011,114.733752 7.48469745,117.648119 C6.18641127,120.349453 5.02950452,123.116441 4.01866225,125.937876 C3.05747228,128.598644 2.24992088,131.312394 1.59999594,134.065724 C0.204636468,139.988407 -0.207566512,146.100069 0.379865162,152.156392 C0.62035779,155.432945 1.14053629,158.682958 1.93472208,161.870951 C2.73810689,165.135124 3.84052064,168.318393 5.2279954,171.380425 C6.59714193,174.432452 8.20748815,177.370518 10.0437328,180.166704 C11.8694483,182.886715 13.9404363,185.433925 16.2307676,187.776441 C18.5404253,190.168511 21.0711281,192.336949 23.7890998,194.252814 C26.5935591,196.348159 29.5575299,198.221215 32.6539438,199.854876 C35.2622146,201.276817 37.9600962,202.52795 40.7305616,203.600379 C43.6363418,204.764148 46.6070528,205.758854 49.6277984,206.57951 C52.8238932,207.493398 56.1027697,208.274161 59.4644279,208.921798 C62.822487,209.569435 66.1913436,210.001194 69.5494026,210.45454 C72.9074617,210.907886 76.3842945,211.091383 79.8395321,211.199323 C83.2947697,211.307262 86.7392096,211.199323 90.172852,211.026619 C93.7792562,210.81074 97.2992795,210.497716 100.722124,210.044369 C104.306933,209.547848 107.870147,208.964974 111.400968,208.241779 C114.124128,207.72581 116.819713,207.073757 119.477586,206.288073 C122.144597,205.564878 124.876395,204.755332 127.629787,203.967373 C130.383179,203.179414 133.104179,202.143195 135.879167,201.117769 C138.654154,200.092343 141.385952,198.958978 144.106951,197.750055 C146.827951,196.541132 149.50576,195.440149 152.118783,194.155668 C154.731807,192.871188 157.247652,191.619089 159.763497,190.259051 C162.279341,188.899013 164.64402,187.614532 166.9979,186.049409 C170.053626,184.149673 173.141745,182.120409 176.057101,180.091146 C178.972458,178.061882 181.736648,175.773564 184.479243,173.539215 C187.221838,171.304867 189.651302,168.887021 192.134754,166.490763 C194.618206,164.094505 196.907301,161.601102 199.164003,158.934995 C201.420705,156.268888 203.48305,153.635164 205.480609,150.861117 C207.478168,148.087071 209.335358,145.280643 211.062977,142.333893 C212.671822,139.656992 214.302262,136.807389 215.641167,133.946991 C216.12706,132.867595 216.558964,131.896139 217.044857,130.85992 C217.821901,129.132093 218.503182,127.362804 219.085607,125.560088 C220.314418,122.210839 221.267772,118.766933 221.936178,115.262655 C222.618314,111.975352 223.008545,108.634223 223.102321,105.278248 C223.185605,101.931798 222.983316,98.5843429 222.497654,95.2722518 C222.023409,91.9707753 221.249998,88.7192158 220.186964,85.5576928 C219.135661,82.3202638 217.817428,79.1756288 216.245834,76.1561585 C214.680642,73.2011178 212.90527,70.3622079 210.933406,67.6613164 C208.961852,65.0427043 206.749494,62.6142718 204.325264,60.407779 C201.824115,58.0888091 199.141342,55.9736392 196.302634,54.0825217 C193.325108,52.0811556 190.178213,50.3439079 186.897909,48.8906296 C185.548207,48.3509319 184.252493,47.7572644 182.8596,47.1959787 Z"/>
        <path stroke="#990B27" stroke-linecap="round" stroke-linejoin="round" stroke-width="4.05" d="M33.4053999,82.6102964 C31.7149145,81.5641109 30.1713309,80.2977991 28.8153079,78.8447163 C26.6595411,76.5277047 24.8679392,73.8975051 23.5016015,71.0438153 C22.2973496,68.5500867 21.4258916,65.9092559 20.9095495,63.1889662 C20.2671881,60.1276124 20.1394395,56.9807839 20.5315419,53.8775173 C20.8831952,50.6548512 21.7548944,47.5103371 23.1127937,44.5660684 C24.2354595,42.0560805 25.6569448,39.6904686 27.3464785,37.5204414 C29.2703963,34.980989 31.5894825,32.7661745 34.2154161,30.9603476 C36.4195793,29.2823503 38.8433354,27.9137442 41.4191605,26.8926579 C43.9680106,25.7741018 46.6449935,24.9732438 49.3897202,24.5081502 C52.5920517,23.8840219 55.874007,23.7783737 59.109915,24.1952509 C61.8892105,24.5681878 64.626761,25.2040353 67.2856788,26.0942255 C69.4107693,26.8093689 71.450041,27.7574424 73.3662006,28.921108 C73.7118075,29.180059 74.1222158,29.471379 74.5434242,29.7626989 C74.9760935,26.6253016 75.8866436,23.5724913 77.2434783,20.7102011 C80.8579906,12.5661731 87.5695864,6.19504925 95.895452,3.00442175 C104.107875,-0.538393391 113.392462,-0.678107801 121.707969,2.61599514 C129.832712,5.52574294 136.307371,11.7935171 139.474325,19.814662 C141.983807,25.9822571 142.427119,32.7957526 140.737951,39.2359922 M140.737951,39.235707 C140.899954,39.235707 141.029556,39.235707 141.19156,39.235707 C144.616881,39.2271188 148.039603,39.4252907 151.440965,39.8294218 C154.853833,40.228638 158.223501,40.7033816 161.603969,41.1781253 C164.15282,41.5665519 166.615269,42.0412955 169.16412,42.6563043 C172.285383,43.476316 175.363444,44.4150136 178.430706,45.4723972 C179.931936,46.0118786 181.389965,46.55136 182.847994,47.1771584 C184.306024,47.8029568 185.537248,48.3316486 186.887275,48.957447 C190.168369,50.4101428 193.316021,52.1466941 196.294264,54.147258 C199.133655,56.0376175 201.817073,58.1519396 204.318825,60.46998 C206.743638,62.6755884 208.956529,65.1030475 210.928557,67.7206099 C212.900896,70.4204189 214.676695,73.2581908 216.242263,76.2120471 C217.814236,79.2303071 219.132787,82.3736816 220.184342,85.609813 C221.254051,88.767535 222.024255,92.018726 222.484789,95.3204781 C223.486207,101.960942 223.303384,108.726058 221.944778,115.302869 C221.266064,118.804498 220.309014,122.246502 219.08272,125.596174 C218.500155,127.398167 217.81871,129.166747 217.041479,130.893881 C216.55547,131.972844 216.123461,132.943911 215.637451,133.979715 C214.244223,136.838966 212.667392,139.687428 211.05816,142.363256 C209.330125,145.308824 207.461688,148.103338 205.474448,150.887062 C203.487208,153.670786 201.359565,156.357403 199.156321,158.957703 C196.953077,161.558004 194.544629,164.050408 192.12538,166.510443 C189.706132,168.970478 187.081679,171.24709 184.468027,173.55607 C181.854374,175.86505 178.949116,178.012186 176.043858,180.105374 C173.1386,182.198562 170.038938,184.162274 166.971676,186.072038 C164.628029,187.625745 162.16558,188.974448 159.746331,190.258414 C157.327083,191.54238 154.70263,192.945031 152.099778,194.164259 C149.496926,195.383487 146.775272,196.624294 144.086018,197.757205 C141.396764,198.890116 138.621108,200.087765 135.856253,201.123569 C133.091397,202.159374 130.337342,203.065702 127.604887,203.972031 C124.872433,204.87836 122.118377,205.568896 119.450724,206.291801 C116.783071,207.014706 114.050616,207.683663 111.372162,208.244724 C107.844091,208.964032 104.28362,209.564655 100.690748,210.046592 C97.2670795,210.499756 93.746209,210.812655 90.1389367,211.028448 C86.7044679,211.190292 83.2483986,211.308978 79.8031296,211.201082 C76.3578606,211.093186 72.8693907,210.877393 69.5105234,210.456597 C66.1516561,210.035802 62.7819885,209.571848 59.4231212,208.92447 C56.0642539,208.277093 52.7809881,207.500239 49.5841241,206.583121 C46.5641366,205.757906 43.5929871,204.763691 40.6847458,203.605184 C37.9136135,202.533185 35.2150825,201.282553 32.6061839,199.861183 C29.4979094,198.213291 26.5224959,196.326621 23.7068056,194.218207 C20.9860552,192.305839 18.4544939,190.138056 16.1466541,187.744431 C13.8508807,185.395551 11.7790913,182.838153 9.95813009,180.105374 C8.12144346,177.310309 6.51070965,174.373421 5.14123357,171.322617 C3.77664124,168.258098 2.6922047,165.076591 1.90116865,161.816955 C1.10852122,158.629458 0.584677382,155.381201 0.335137266,152.10629 C0.049013015,148.828867 0.049013015,145.532782 0.335137266,142.255359 C0.561904607,139.515585 0.991488324,136.796354 1.62036302,134.11998 C2.27044439,131.367753 3.07819017,128.655091 4.03961149,125.99539 C5.05069707,123.175085 6.20788228,120.409207 7.50648096,117.708956 C8.89970888,114.806546 10.3577381,111.990453 11.999371,109.17436 C13.4574002,106.768273 15.0342318,104.372976 16.7082653,101.956099 C18.8683086,98.9134242 21.1147536,96.075752 23.4584006,93.3243969 C25.0460324,91.4470017 26.6984655,89.6127649 28.3832993,87.929583 C30.068133,86.246401 31.7745672,84.4013747 33.5134021,82.6642446"/>
        <path fill="#FFF" fill-rule="nonzero" d="M136.797018,20.8618628 C133.855568,13.3091134 127.783077,7.39957658 120.148041,4.65966011 C103.953598,-1.60633439 85.6764906,5.82192729 78.4611491,21.6022284 C76.6907158,25.2898998 75.7381061,29.3159164 75.6684174,33.4051575 C75.0883885,32.8686608 74.5083596,32.3858137 73.8746243,31.8707768 L72.0163836,30.5939144 C70.1873106,29.4913171 68.2466775,28.584966 66.2268359,27.8899707 C63.7377405,27.0652866 61.177549,26.4726101 58.5790475,26.1195313 C55.5373941,25.7419322 52.4562814,25.8215008 49.4382218,26.3555899 C46.854709,26.851505 44.333367,27.6286978 41.9193287,28.673256 C39.5023723,29.638451 37.2148544,30.8999431 35.1093598,32.4287334 C32.6651638,34.1653974 30.4931439,36.2555676 28.6645943,38.6306362 C27.0782325,40.6991447 25.7272573,42.9375964 24.6366159,45.3046561 C23.422265,48.0799855 22.6085482,51.0134988 22.2198288,54.0173638 C21.8578697,56.9544029 21.9849002,59.9310308 22.5957735,62.8266409 C23.1363383,65.3764591 23.965151,67.8566724 25.0662669,70.2195666 C26.3648279,72.901083 28.0354315,75.3862817 30.0287363,77.6017622 C30.9623127,78.6213196 31.97907,79.5616347 33.0685174,80.4130054 C34.2076138,81.2763221 35.4064736,82.0579853 36.6561035,82.7521313 C39.2230074,84.1063105 41.9726493,85.0821257 44.8194732,85.6492139 C47.638193,86.2770927 50.5271363,86.5332157 53.4124938,86.4110394 C56.4198494,86.2482284 59.3976674,85.7332424 62.2847877,84.8766586 C65.2730054,84.0213073 68.1285537,82.7575266 70.7703956,81.1211811 C73.2480128,79.4898646 75.4765931,77.5093896 77.3870215,75.2411764 C79.0203013,73.2717722 80.4055327,71.1096333 81.5116714,68.8032151 C82.6143055,66.4521105 83.443225,63.9823779 83.9821649,61.4424792 C84.1969904,60.0261277 84.4010746,58.5561266 84.5514525,57.150505 C84.5514525,56.4530592 84.5514525,55.659044 84.6159002,54.9186784 C87.4658489,57.6490686 90.8581394,59.7510187 94.5730629,61.0883914 C102.342691,64.2293261 111.048994,64.1249608 118.740934,60.7986831 C126.560616,57.8047361 132.854449,51.8073688 136.216989,44.1458231 C139.750967,36.8262486 139.950643,28.339202 136.764794,20.8618628"/>
        <path fill="#231815" fill-rule="nonzero" d="M41.5522001 54.1451764C42.6498702 50.0362076 45.4038222 46.5658218 49.1580393 44.5606971 52.8653562 42.4233913 57.288817 41.901435 61.3925749 43.1170553 69.8910953 45.5747509 74.7918877 54.4435592 72.3449833 62.9372808 71.2728013 67.058989 68.5115925 70.5385193 64.7391441 72.5217601 59.073242 75.5999997 52.1144752 74.9986953 47.0618284 70.99427 42.0091817 66.9898446 39.840288 60.3571117 41.5522001 54.1451764M110.385833 25.3223413C106.705802 23.2008561 102.3294 22.6422745 98.2346063 23.7714208 94.139813 24.9005672 90.6679569 27.6233196 88.5948817 31.3312338 86.4069935 34.9749024 85.8418177 39.367488 87.0360655 43.4464604 89.3952498 51.955094 98.1883285 56.9549258 106.705295 54.6305794 115.169108 52.2163418 120.138655 43.4652723 117.87681 34.958223 116.823375 30.8465244 114.110444 27.3567954 110.385833 25.3223413"/>
        <path fill="#1A0B08" fill-rule="nonzero" d="M143.560209,108.543089 C133.483642,113.462372 123.234086,118.188741 112.768295,122.475698 C102.302505,126.762654 91.4474902,130.631633 80.3329933,134.114785 C68.4590269,137.766134 56.233253,140.179888 43.8540903,141.316872 L27.8634864,142.045655 C45.9299496,168.839133 70.634838,179.845894 102.21601,174.990916 C111.869789,173.47923 121.281055,170.715448 130.207676,166.770677 C130.262675,166.713895 130.334745,166.676295 130.4131,166.663503 C139.596138,163.304784 148.288979,158.753039 156.264035,153.127437 C182.26994,134.693524 192.223974,109.686277 186.126137,78.1056975 L174.233193,88.6944802 C164.726308,96.3549264 154.456049,103.034268 143.581832,108.628828"/>
        <path fill="#332C2A" fill-rule="nonzero" d="M110.513159,120.59839 L110.513159,120.69839 C110.610683,120.606876 110.717998,120.52639 110.833159,120.45839 L110.513159,120.59839 Z"/>
        <path fill="#E78C00" fill-rule="nonzero" d="M122.58176,71.2089673 C119.500684,63.861568 113.58803,58.0409234 106.159407,55.0421698 C98.9813417,51.952324 90.8271439,51.9875046 83.6764254,55.1391706 C76.4446417,58.195886 70.8240018,64.1053167 68.1664261,71.4460803 C65.2974352,78.8439105 65.520262,87.0716872 68.7855227,94.3059319 C71.8005609,101.648645 77.7044059,107.452616 85.1318454,110.375729 C92.2679583,113.57104 100.449571,113.539587 107.560521,110.289506 C114.824126,107.344933 120.475117,101.462879 123.092243,94.1227082 C126.022959,86.7328655 125.839025,78.4844901 122.58176,71.230523"/>
        <path fill="#D82B1C" fill-rule="nonzero" d="M127.939347,210.426469 C127.955561,210.318438 127.98823,210.213509 128.036225,210.11531 C128.941744,207.541551 129.308099,204.810025 129.112648,202.089551 C128.99687,200.053497 128.461912,198.062985 127.54107,196.241906 C127.462143,196.327333 127.361833,196.390287 127.250436,196.42431 C127.016461,196.496865 126.789499,196.590231 126.572289,196.70328 C105.280644,204.557365 84.37651,211.445783 63.9567668,217.593857 L51.7286022,221.027337 C51.2226834,220.812744 50.7598215,220.533774 50.1893173,220.340641 C49.6733547,220.04505 49.1192387,219.821228 48.5423902,219.675404 C47.3384222,219.251387 46.0587454,219.083261 44.7856742,219.181842 L40.5445678,217.035917 C38.6032698,216.136812 36.5198086,215.581314 34.3874285,215.394284 C31.8114335,215.160529 29.2156178,215.2724 26.669476,215.726903 C24.839557,216.123899 23.806191,216.317032 23.5909064,216.37068 C23.0957519,216.67111 22.5898331,216.907161 21.9870362,217.22905 L21.9332151,217.22905 C18.176499,219.299867 17.1969541,222.207595 19.0914585,225.877127 C19.1560439,225.877127 19.1668081,225.973693 19.2313935,226.005882 C19.3082265,226.154421 19.4188066,226.283016 19.5543204,226.381419 C20.4420069,227.3681 21.7525968,227.867479 23.0742234,227.722622 C24.801854,227.624702 26.4892278,227.163995 28.0257689,226.370689 C29.3248215,225.707863 30.6578253,225.113342 32.0192981,224.589572 L31.4595581,225.072405 C29.9802297,226.387714 28.6484364,227.85913 27.4875575,229.460821 C27.0246956,230.083139 26.4972484,230.726917 26.0343865,231.349235 C25.5715246,231.971553 25.1732481,232.250523 24.7211505,232.701167 C24.5426953,232.863747 24.3479108,233.007568 24.1398821,233.130352 C21.4345644,235.435324 18.2107786,237.054918 14.7427098,237.851387 C12.188855,238.347199 9.720004,239.207254 7.41226959,240.405037 C6.28980815,240.971089 5.47182291,241.998123 5.17330986,243.216199 L5.17330986,243.216199 C5.10231651,244.526326 5.42863781,245.827414 6.10979782,246.950108 C7.09177975,248.409 8.42380559,249.600281 9.98492042,250.415776 C10.9545739,250.905721 12.0578927,251.067673 13.1280754,250.87715 L13.1280754,250.87715 L13.1280754,250.87715 C13.3933768,249.682888 13.9945186,248.58868 14.8611164,247.72264 C15.5243643,246.940272 16.3227411,246.282547 17.2184826,245.780579 C17.6260344,245.504016 18.0673491,245.280462 18.5317186,245.115342 C19.6081415,244.729075 20.6845645,244.471565 21.6533451,244.171135 L21.6533451,244.171135 C20.2920246,244.897912 19.1283667,245.943678 18.2626129,247.218348 C17.2101698,248.698926 16.8204373,250.548089 17.1861899,252.325649 C17.3510516,253.024006 17.5966847,253.700926 17.9181575,254.342818 C18.4829712,255.35956 19.4737925,256.07176 20.6199791,256.28488 C22.1400955,256.711897 23.758889,256.628955 25.2270693,256.048828 L25.3239474,255.512347 C25.3990845,255.149191 25.4961389,254.790886 25.6145816,254.439385 C25.7103862,253.450813 26.0628189,252.504153 26.6371833,251.692601 C27.4537924,250.499334 28.4913671,249.472378 29.6942245,248.666847 C31.0672295,247.79588 32.6067208,247.2186 34.2152009,246.971567 C35.4413203,246.72645 36.6994143,246.682957 37.9396243,246.842811 L39.4143237,247.046674 C38.4213317,247.254775 37.4403548,247.516244 36.475689,247.829937 C35.225212,248.299959 34.0215571,248.885483 32.8804364,249.578865 C31.4665195,250.368555 30.3369911,251.580771 29.6511676,253.044534 C28.8781693,254.481709 28.8029098,256.191319 29.4466472,257.690461 C30.5230702,259.568145 32.4713957,260.447974 35.302388,260.201193 C39.5366974,259.597826 43.5280072,257.862572 46.8524062,255.179729 C50.4807966,252.555845 52.9648429,248.647892 53.7953342,244.256972 C53.8839714,243.998913 53.9919169,243.74785 54.1182611,243.505898 C54.3022346,243.279667 54.5244485,243.087217 54.7748791,242.937228 C54.994441,242.811472 55.2032535,242.667926 55.3992044,242.508043 C58.3511578,240.538139 60.338747,237.42427 60.8781972,233.924344 C61.0719533,232.851382 61.3087663,231.77842 61.5025225,230.705457 L71.8361827,227.905026 C89.5971613,222.897868 107.63801,216.921468 125.958728,209.975824 C126.278552,209.87388 126.613398,209.826717 126.949037,209.836339 C127.144196,209.8781 127.332581,209.946711 127.508777,210.040202 C127.688396,210.122191 127.85231,210.234747 127.993168,210.372821"/>
        <path fill="#990B27" fill-rule="nonzero" d="M128.990363,211.489236 C128.871084,211.211704 128.694617,210.962308 128.472423,210.757249 C128.331223,210.618726 128.16691,210.505804 127.986855,210.423549 C127.809637,210.331085 127.62098,210.262318 127.425753,210.219023 C127.089298,210.20937 126.753637,210.256686 126.433036,210.358962 C108.046176,217.40613 89.9614487,223.401965 72.1788525,228.346465 L61.8200585,231.156003 C61.6258312,232.232455 61.3884421,233.308906 61.2050052,234.385358 C60.6603824,237.898013 58.6641444,241.021851 55.7018959,242.996969 C55.5129813,243.170082 55.3026628,243.318399 55.0760521,243.438314 C54.8250124,243.588791 54.6022581,243.781867 54.417837,244.008833 C54.2911856,244.251571 54.1829775,244.503451 54.0941247,244.762349 C53.2636916,249.168365 50.7731535,253.089734 47.1343101,255.720625 C43.8018254,258.412192 39.8008079,260.153089 35.5561998,260.758418 C32.7183218,261.006001 30.7868384,260.123311 29.6862165,258.239521 C29.0409134,256.735505 29.116356,255.020335 29.8912343,253.578487 C30.5787259,252.109964 31.7110015,250.893806 33.1283574,250.101548 C34.260702,249.396575 35.4564087,248.798355 36.6999833,248.314639 C37.6669953,247.999926 38.6503581,247.737607 39.6457653,247.52883 L38.1674791,247.324304 C36.9242526,247.16393 35.6630987,247.207564 34.4339971,247.453478 C32.8216049,247.701314 31.2783691,248.280472 29.9020247,249.154271 C28.711851,249.952902 27.6832,250.968129 26.8699194,252.146806 C26.294158,252.960997 25.9408681,253.910736 25.8448304,254.902522 C25.7260997,255.255166 25.6288092,255.614636 25.5534894,255.978973 L25.4563757,256.517199 C23.9846244,257.099212 22.3618936,257.182424 20.83808,256.754018 C19.6891057,256.540205 18.6958745,255.825689 18.129687,254.805641 C17.8086679,254.16 17.5590194,253.481431 17.3851487,252.781913 C17.0250616,250.998593 17.4151964,249.146008 18.4641898,247.658004 C19.3320493,246.379189 20.4985375,245.330022 21.863169,244.600882 L21.863169,244.600882 C20.8488705,244.902288 19.8345719,245.160636 18.73395,245.548159 C18.2684511,245.713816 17.826063,245.938096 17.41752,246.215559 C16.5418467,246.728652 15.7637988,247.391867 15.1191626,248.1747 C14.2592905,249.028785 13.6573213,250.106745 13.3819065,251.285645 L13.3819065,251.285645 L13.3819065,251.285645 C12.3091209,251.476788 11.2031186,251.314309 10.2311067,250.822771 C8.66827641,250.001638 7.33368097,248.807083 6.34655894,247.345833 C5.6637422,246.219489 5.33662721,244.914169 5.40779324,243.599782 L5.40779324,243.599782 C5.70378168,242.36763 6.52874318,241.328074 7.66298901,240.75795 C9.97758387,239.556766 12.4518411,238.690499 15.0112585,238.185231 C18.4886556,237.394594 21.721401,235.772865 24.4312867,233.459609 C24.6398213,233.336426 24.8350796,233.192137 25.0139688,233.029029 C25.4671661,232.576919 25.8664113,232.135574 26.3303989,231.6727 C26.7943866,231.209826 27.3231167,230.402487 27.7978947,229.778145 C28.9547067,228.168981 30.2864317,226.692436 31.7687657,225.375459 L32.3298671,224.891056 C30.9650829,225.416529 29.6288369,226.012983 28.3266248,226.677965 C26.7863465,227.47385 25.0948687,227.936056 23.3630361,228.034294 C22.038195,228.179622 20.7244174,227.678619 19.8345719,226.68873 C19.6987285,226.590007 19.5878795,226.460994 19.5108596,226.311972 C19.4461171,226.311972 19.4353267,226.225856 19.3705842,226.182798 C17.471472,222.501334 18.4533994,219.58415 22.2192526,217.506599 L22.2732046,217.506599 C22.8774676,217.183664 23.3522457,216.946844 23.8809758,216.645438 C24.096784,216.645438 25.1326634,216.397854 26.9670331,215.999567 C29.5193676,215.543586 32.1214969,215.431351 34.7037573,215.665867 C36.8415541,215.852201 38.9303054,216.409565 40.8758721,217.312838 L45.1272937,219.465741 C46.4025726,219.368709 47.6842513,219.533572 48.8931469,219.950144 C49.470246,220.104891 50.025079,220.332804 50.5440797,220.628308 C51.1159715,220.82207 51.6231208,221.112711 52.0978988,221.317237 L64.3450146,217.872593 C84.8467942,211.704526 105.737029,204.793708 127.091251,196.914083 C127.308989,196.800666 127.536502,196.706997 127.771047,196.634206 C127.882715,196.600073 127.983268,196.536913 128.062388,196.451209 C128.399526,196.245915 128.681096,195.961326 128.882459,195.622341 C129.092985,195.130724 129.092985,194.574633 128.882459,194.083016 C128.723852,193.567963 128.319709,193.16479 127.803418,193.006564 C127.348026,192.722053 126.769733,192.722053 126.314341,193.006564 C104.172419,201.187595 82.526856,208.335233 61.280538,214.643238 L52.0655276,217.226722 C51.1481942,216.58282 50.1032724,216.142363 49.001051,215.93498 C46.0413733,215.349698 43.1957166,214.291953 40.5737406,212.802506 C38.7765668,212.133364 36.8886885,211.737825 34.9735176,211.629174 C31.9843322,211.322519 28.9660694,211.460373 26.017477,212.038226 C24.6851474,212.276997 23.3776138,212.637327 22.1113485,213.114677 L22.0573964,213.114677 C21.4679857,213.325129 20.9035057,213.599472 20.3740924,213.93278 L20.3201403,213.93278 C14.1264448,217.241074 12.6301746,221.973873 15.8313296,228.131175 C15.8960721,228.131175 15.8960721,228.131175 15.9284433,228.281878 C16.911502,229.8849 18.4276416,231.092615 20.2122362,231.694229 C18.3194339,232.925431 16.2331609,233.831437 14.0401215,234.374593 C11.095685,234.932336 8.25148926,235.926504 5.60202063,237.32407 C3.4579517,238.44974 1.91600855,240.456143 1.38297018,242.813972 L1.38297018,242.813972 C0.964760126,245.130045 1.48056293,247.517162 2.81809476,249.455678 L2.81809476,249.5095 C4.17252458,251.576387 6.02831981,253.268514 8.21329993,254.428883 L8.26725199,254.428883 C10.0388202,255.357343 12.0637833,255.689621 14.0401215,255.37616 C14.9421571,257.21711 16.2432234,258.834944 17.8491364,260.112547 C17.9936878,260.207005 18.1495735,260.282953 18.313124,260.338602 C20.2985595,261.415053 23.0069525,261.565756 26.3519797,260.564656 C28.1863495,263.794011 31.434263,265.161104 35.9986066,264.708994 C40.9664819,264.069771 45.6605356,262.072973 49.5621524,258.939215 C53.761175,255.897273 56.7159732,251.443215 57.8815588,246.398556 C58.4102889,245.989504 58.9605998,245.558923 59.4677491,245.214459 C61.2247005,243.781951 62.6587194,241.995564 63.6760091,239.97214 C64.602779,238.228036 65.192128,236.325465 65.4132652,234.363829 L74.0455935,231.952577 C91.7202856,226.929137 109.679125,220.962008 127.922112,214.05119 C128.429642,213.846916 128.844333,213.463865 129.087477,212.974739 C129.292497,212.485743 129.292497,211.935173 129.087477,211.446178"/>
        <polyline fill="#990B27" fill-rule="nonzero" points="246.768 181.437 246.768 181.437 246.668 181.437 246.768 181.437"/>
        <path fill="#D82B1C" fill-rule="nonzero" d="M165.600916,199.171135 C165.681235,198.983056 165.794647,198.810945 165.935753,198.662997 C166.195834,198.452726 166.487458,198.284883 166.799848,198.165671 C185.71633,192.651834 203.772317,186.496518 220.96781,179.699723 L230.937307,175.656243 C231.736595,176.402232 232.589889,177.126599 233.389177,177.818532 C235.949975,180.290496 239.429756,181.573119 242.980633,181.353874 C243.235526,181.381312 243.492624,181.381312 243.747517,181.353874 C244.036932,181.302967 244.332999,181.302967 244.622414,181.353874 C244.871347,181.474324 245.109801,181.615362 245.335292,181.77552 C248.671192,184.793119 253.034664,186.417919 257.529834,186.316327 C261.817527,186.449472 266.061263,185.418352 269.810786,183.332368 C272.241054,181.818766 273.234763,179.937575 272.975535,177.764474 C272.579178,176.167785 271.47794,174.838678 269.983605,174.153452 C268.539051,173.402636 266.898408,173.115722 265.285088,173.331782 C263.953475,173.475821 262.637583,173.739973 261.353455,174.121017 C260.388671,174.451724 259.443791,174.837977 258.523544,175.277842 L259.603663,174.196698 C260.4973,173.313126 261.529984,172.582621 262.660399,172.034409 C264.09715,171.258644 265.6782,170.787559 267.30491,170.650544 C268.768244,170.568176 270.233978,170.762571 271.625386,171.22355 C272.581363,171.52634 273.441544,172.074248 274.120461,172.812833 C274.434266,173.023359 274.733758,173.254511 275.016959,173.504765 L275.416603,173.883166 C276.949099,173.460479 278.297877,172.540157 279.251025,171.266796 C280.048081,170.387934 280.408883,169.197346 280.233933,168.023363 C280.091675,167.310483 279.874442,166.614676 279.585862,165.947565 C278.78164,164.30566 277.3354,163.069319 275.589422,162.531149 C274.120828,162.031005 272.552431,161.897398 271.020519,162.141937 L271.020519,162.087879 C272.014229,161.731102 272.975535,161.309455 274.088057,161.006735 C274.562384,160.863812 275.051741,160.776732 275.546218,160.74726 C276.567976,160.600835 277.607979,160.644821 278.613755,160.876998 C279.806382,161.045591 280.928474,161.543524 281.854112,162.31492 L281.908118,162.31492 L281.908118,162.31492 C282.857567,161.810798 283.616219,161.00966 284.068356,160.033705 C284.826882,158.436727 285.172297,156.674552 285.072866,154.90908 C284.931659,153.592503 284.39714,152.349131 283.539097,151.341303 L283.539097,151.341303 C282.555975,150.534865 281.267958,150.202668 280.01791,150.433142 C277.445796,150.873255 274.950347,151.681587 272.608294,152.833283 C269.349353,154.300637 265.785268,154.96073 262.21755,154.75772 C261.977081,154.784767 261.734341,154.784767 261.493871,154.75772 L259.625265,154.476622 C258.869182,154.260393 258.059093,154.065787 257.30301,153.838747 C255.40436,153.265063 253.448348,152.902494 251.470368,152.757603 L250.725085,152.757603 C252.145079,152.343713 253.587603,152.011618 255.045561,151.76295 C256.754013,151.456995 258.379979,150.79789 259.819687,149.827701 C260.974025,149.13711 261.7197,147.926758 261.817906,146.584268 C261.854834,146.424202 261.854834,146.257818 261.817906,146.097753 C261.817906,146.022072 261.817906,145.968015 261.817906,145.892335 C261.094227,141.805609 258.57755,140.064966 254.257074,140.681219 L254.203068,140.681219 C253.522593,140.789333 252.971733,140.908259 252.39927,140.973128 C252.194047,141.059619 251.254344,141.535323 249.536955,142.324558 C247.227191,143.505252 245.087234,144.992643 243.175054,146.746439 C241.576854,148.185245 240.248956,149.898872 239.254223,151.806195 L237.191196,156.130773 C236.10996,156.820206 235.186155,157.730152 234.480097,158.8012 C234.11167,159.272871 233.803271,159.78857 233.561996,160.336425 C233.237961,160.833752 233.032738,161.352701 232.762708,161.828405 L220.881401,166.498949 C200.823593,173.958846 179.955696,181.105211 158.148096,187.743438 C157.905131,187.781676 157.666405,187.843225 157.435217,187.927232 C157.321645,187.954753 157.203152,187.954753 157.089579,187.927232 C157.46149,189.946501 158.24462,191.867544 159.390232,193.570807 C160.885773,195.877883 162.837725,197.853765 165.125664,199.376552 C165.220113,199.425582 165.307347,199.487431 165.384892,199.560347 C165.416133,199.367878 165.478134,199.181701 165.568512,199.008963"/>
        <path fill="#990B27" fill-rule="nonzero" d="M166.11884,201.127097 C166.607893,201.344708 167.158526,201.382791 167.673086,201.234593 C186.38161,195.766644 204.305815,189.696719 221.445701,183.024819 L229.74581,179.799947 C232.73307,182.84083 236.759142,184.651925 241.024891,184.873745 L243.010873,184.873745 C247.003834,188.176485 252.057976,189.935775 257.24734,189.829298 C262.254367,189.969829 267.203182,188.731137 271.548567,186.24969 C275.45577,183.852536 277.225884,180.821157 276.718596,177.134053 C279.956609,175.919352 282.115285,174.19942 283.000342,172.124753 C283.09045,171.979748 283.162915,171.82458 283.21621,171.662522 C283.732637,169.680193 283.788009,167.606628 283.37811,165.599763 C285.124034,164.677112 286.524561,163.218183 287.371661,161.439679 L287.425628,161.439679 C288.453815,159.198934 288.906326,156.738695 288.74242,154.280464 L288.74242,154.226716 C288.620437,151.879813 287.582403,149.673299 285.849794,148.077962 L285.849794,148.077962 C283.998391,146.525205 281.555503,145.860952 279.168693,146.261284 C276.206346,146.745811 273.332718,147.665988 270.641923,148.991675 C268.58481,149.86838 266.396948,150.402231 264.165896,150.571862 C265.211872,149.027537 265.688608,147.170119 265.515068,145.315322 C265.515068,145.207826 265.515068,145.207826 265.515068,145.143328 C264.327796,138.3281 260.258692,135.468714 253.31855,136.543671 L253.31855,136.543671 C252.695871,136.601916 252.080948,136.724401 251.483675,136.909157 L251.429708,136.909157 C250.141714,137.310653 248.891987,137.825062 247.695199,138.446345 C244.992978,139.765255 242.501523,141.475027 240.301734,143.520143 C238.846386,144.760789 237.584174,146.209883 236.556432,147.819972 C235.364773,150.567709 233.739644,153.108007 231.742585,155.344672 C230.98727,156.17087 230.420255,157.149951 230.080404,158.214808 L221.175867,161.719168 C200.430992,169.491108 178.844234,176.854565 156.242898,183.680543 C155.706475,183.735704 155.25131,184.096679 155.077213,184.605006 C154.7738,185.029556 154.6935,185.573375 154.861345,186.066947 C155.004622,186.580802 155.346032,187.017424 155.811163,187.281649 C156.173865,187.440434 156.57258,187.499813 156.966054,187.453642 C157.079544,187.481006 157.197952,187.481006 157.311442,187.453642 C157.542462,187.370115 157.781016,187.308919 158.023805,187.270899 C179.815638,180.670663 200.668446,173.565196 220.711751,166.147991 L232.584468,161.504176 C232.865096,161.031195 233.059377,160.515216 233.383178,160.020736 C233.624278,159.476015 233.932455,158.963268 234.300616,158.494296 C235.006163,157.429378 235.9293,156.524639 237.009754,155.839152 L239.071289,151.539324 C240.065303,149.642915 241.392241,147.939095 242.989286,146.508524 C244.902688,144.768013 247.040639,143.289451 249.346586,142.111949 C251.062733,141.327231 252.001757,140.854249 252.206832,140.768253 C252.778881,140.703755 253.286169,140.58551 254.009326,140.478014 L254.063293,140.478014 C258.315884,139.865289 260.863122,141.552972 261.618658,145.659308 C261.618658,145.734555 261.618658,145.788303 261.618658,145.86355 C261.655559,146.022699 261.655559,146.188131 261.618658,146.347281 C261.520523,147.682088 260.775387,148.885513 259.621883,149.572152 C258.183216,150.536789 256.558427,151.192121 254.851209,151.496325 C253.394305,151.743571 251.952825,152.073765 250.533858,152.485286 L251.278601,152.485286 C253.255151,152.629348 255.209749,152.989842 257.107026,153.560243 C257.862562,153.785984 258.672066,153.979476 259.427602,154.194468 L261.165336,154.420209 C261.405632,154.447101 261.648197,154.447101 261.888493,154.420209 C265.45363,154.622057 269.015139,153.965741 272.271723,152.506785 C274.612644,151.363061 277.106085,150.559421 279.675981,150.12038 C280.925126,149.891225 282.212212,150.221521 283.194623,151.023344 L283.194623,151.023344 C284.052045,152.025405 284.586178,153.26166 284.727283,154.570703 C284.824958,156.324819 284.483752,158.075639 283.734292,159.666 C283.261162,160.643189 282.480401,161.439654 281.510856,161.934159 L281.510856,161.934159 L281.456889,161.934159 C280.53192,161.167178 279.41064,160.672095 278.218875,160.504466 C277.213826,160.273618 276.174576,160.229884 275.153556,160.375471 C274.659437,160.404775 274.170433,160.491356 273.696449,160.633461 C272.617112,160.988197 271.624121,161.40743 270.63113,161.708418 L270.63113,161.762166 C272.16195,161.519463 273.729107,161.652297 275.196729,162.149151 C276.943354,162.680778 278.389775,163.911085 279.190279,165.546015 C279.479981,166.207883 279.693608,166.900254 279.827089,167.609933 C280.011144,168.775986 279.653826,169.962215 278.855685,170.834805 C277.903225,172.100879 276.555422,173.015933 275.024035,173.436201 L274.62468,173.059966 C274.341683,172.811144 274.042408,172.581315 273.72883,172.371993 C273.050404,171.637635 272.190845,171.092863 271.235559,170.791806 C269.845157,170.333465 268.380482,170.140183 266.918207,170.222079 C265.292674,170.35831 263.712767,170.826699 262.277054,171.598024 C261.147456,172.143099 260.115519,172.869423 259.222528,173.747938 L258.14319,174.822896 C259.062772,174.385548 260.006968,174.001506 260.971055,173.672691 C262.254254,173.293828 263.569195,173.031188 264.899845,172.887973 C266.511998,172.67315 268.151456,172.958421 269.594965,173.70494 C271.088219,174.386245 272.188661,175.707746 272.584731,177.295297 C272.854566,179.445211 271.839988,181.326386 269.422271,182.831326 C265.675459,184.905372 261.434791,185.930591 257.150199,185.798208 C252.663445,185.89939 248.307675,184.287989 244.975268,181.294138 C244.749939,181.134896 244.511658,180.994665 244.262905,180.874904 C243.973699,180.824289 243.677846,180.824289 243.388641,180.874904 C243.133932,180.902186 242.87702,180.902186 242.622311,180.874904 C239.074001,181.092895 235.596736,179.817612 233.03779,177.359794 C232.23908,176.618074 231.386403,175.897853 230.587693,175.20988 L220.657784,179.144223 C203.453138,185.880622 185.410206,192.000711 166.528988,197.504492 C166.214708,197.625543 165.920107,197.792168 165.654724,197.998972 C165.521375,198.149818 165.41216,198.320227 165.330923,198.504202 C165.240609,198.675951 165.178654,198.861063 165.147436,199.05243 C165.088105,199.350518 165.088105,199.657306 165.147436,199.955394 C165.29488,200.467149 165.635188,200.90236 166.097253,201.170096"/>
        <path fill="#D82B1C" fill-rule="nonzero" d="M206.061045,144.126575 L201.317525,146.272165 C152.663335,173.198954 99.8572072,191.866443 45.0610448,201.510377 C49.5527509,203.240549 54.1743765,204.614417 58.8828647,205.619182 C71.7881201,208.274738 85.0397551,208.825436 98.1217744,207.24983 C112.780635,205.579833 127.120221,201.803835 140.695131,196.039123 C147.405897,193.229833 153.923954,189.982972 160.207023,186.3196 C165.721409,182.893809 171.289577,179.239154 176.911526,175.355636 C182.784188,171.178647 188.1579,166.344606 192.927627,160.948 C197.712599,155.66924 202.102222,150.046963 206.061045,144.126575"/>
        <path fill="#D82B1C" fill-rule="nonzero" d="M132.987874,179.759997 L132.558824,179.867726 L132.902064,179.609177 L132.987874,179.759997 Z M134.553903,176.689735 C131.801812,178.237227 129.217222,180.067662 126.841746,182.15157 C125.543567,183.258391 124.453674,184.590193 123.623878,186.08366 C122.76578,187.656496 121.864777,189.315515 120.974501,191.179218 C120.448915,192.256503 120.00914,193.247605 119.719532,193.893976 C119.636837,194.113709 119.536391,194.326284 119.419198,194.529574 C116.947127,201.799097 115.922996,209.486016 116.405128,217.152558 C116.673284,226.190979 117.113059,234.17366 117.810264,241.283741 C117.810264,241.348378 117.810264,241.348378 117.810264,241.456107 C118.314396,255.396174 124.782311,264.994783 137.256911,270.46739 C148.862688,275.422901 161.505333,275.652722 175.184846,271.156853 C189.12894,266.696893 198.181875,258.97276 202.332924,248.081409 C207.038162,235.283264 203.255379,221.027193 190.984577,205.313196 C187.085774,200.344281 182.898867,195.610389 178.445619,191.136126 C173.211221,185.749702 168.952909,181.666792 165.702863,178.844305 C164.909691,177.849018 164.034175,176.922847 163.085663,176.075683 C161.240753,174.556711 160.16813,173.68411 159.942879,173.447107 C159.3832,172.954119 158.795871,172.493724 158.183778,172.068183 C157.218575,171.574704 156.144981,171.333855 155.062446,171.367947 C151.565697,171.45413 144.733091,173.167013 134.510998,176.754372"/>
      </g>
    </g>
  </g>
</svg>
