<svg xmlns="http://www.w3.org/2000/svg" xmlns:xlink="http://www.w3.org/1999/xlink" width="225" height="241" viewBox="0 0 225 241">
  <defs>
    <circle id="index_icon03-a" cx="130" cy="130" r="130"/>
  </defs>
  <g fill="none" fill-rule="evenodd" transform="translate(-21 -19)">
    <mask id="index_icon03-b" fill="#fff">
      <use xlink:href="#index_icon03-a"/>
    </mask>
    <g mask="url(#index_icon03-b)">
      <g transform="translate(-36 22)">
        <path fill="#3793D1" fill-rule="nonzero" d="M158.534483 172.743481C158.300469 172.567971 158.066455 172.567971 157.656932 172.743481 155.726319 173.796542 156.048088 173.796542 158.534483 172.743481M187.332348 172.171527C181.798476 168.034436 174.189401 167.568671 164.007077 170.829027 161.240141 172.116731 159.275616 173.020864 157.975156 173.705813 158.971253 174.226374 157.975156 178.774435 155.20822 187.404791 152.994671 193.925504 148.263211 207.295707 140.93083 227.652388 124.716585 273.954934 115.853166 309.435287 114.340575 334.093447 112.569736 362.011964 119.874447 384.094717 136.476063 400.506092 143.387687 407.46166 151.823178 412.748921 161.129463 415.958539 169.888255 419.071098 179.283713 420.011775 188.494461 418.698335 197.748112 417.405974 206.481863 413.678025 213.784256 407.90354 221.96931 401.254543 228.287128 392.630342 232.129042 382.861809 242.108458 358.422832 241.038576 326.59554 228.919397 287.379932 217.999222 252.036569 209.587737 225.880654 203.68494 208.912186 195.992858 186.993821 190.569663 174.719537 187.360017 172.226323"/>
        <path stroke="#043689" stroke-width="4.31" d="M157.975156,173.652103 C157.753801,173.487679 157.532446,173.487679 157.145075,173.652103 C155.318898,174.693453 155.623261,174.693453 157.975156,173.652103 Z M157.975156,173.652103 C158.971253,174.172778 157.975156,178.721833 155.20822,187.354077 C152.994671,193.876217 148.263211,207.249344 140.93083,227.610477 C124.716585,273.92315 115.853166,309.411263 114.340575,334.074817 C112.569736,361.99944 119.874447,384.087022 136.476063,400.501987 C143.387687,407.459076 151.823178,412.747494 161.129463,415.957814 C169.888255,419.071053 179.283713,420.011937 188.494461,418.698209 C197.748112,417.405565 206.481863,413.676801 213.784256,407.901053 C221.96931,401.250602 228.287128,392.624515 232.129042,382.853845 C242.108458,358.409523 241.038576,326.575269 228.919397,287.351085 C217.999222,251.999991 209.587737,225.838355 203.68494,208.866177 C195.965188,186.943018 190.569663,174.666049 187.360017,172.17229 C181.826145,168.034294 174.217071,167.568426 164.034746,170.829496 C161.350818,172.062674 159.164939,172.967004 157.975156,173.652103 Z"/>
        <path fill="#3793D1" fill-rule="nonzero" d="M373.904698,190.065801 C372.250854,193.754861 371.489316,197.780364 371.681568,201.817312 C370.124208,201.352556 368.644374,200.66023 367.2902,199.762852 C365.288353,198.529245 363.185858,197.466292 361.005054,196.585287 C355.186491,194.393863 350.630447,195.599146 347.282028,200.365493 C342.424077,207.405443 342.204509,212.308754 346.678215,215.102819 C348.733681,216.260019 350.893012,217.222955 353.128037,217.979063 C355.143334,218.61547 357.009999,219.649459 358.617247,221.019664 C324.748821,259.05913 288.574926,268.436598 250.095562,249.152068 C236.909848,242.260515 224.828573,233.44334 214.25102,222.991945 C209.164461,217.234382 203.777572,211.748222 198.112742,206.556266 L195.011338,232.113747 C195.450475,232.113747 200.500548,237.044451 210.07922,246.714109 C221.305126,256.878553 234.140677,265.116613 248.064554,271.0937 C290.276581,288.552044 331.77501,276.599653 372.559841,235.236526 C387.344114,241.646441 397.325328,241.116847 402.503483,233.647744 C404.340885,230.906083 405.385502,227.711967 405.522549,224.416371 C405.815889,222.586545 405.693959,220.714339 405.16575,218.937811 C406.371553,219.830561 407.811483,220.354022 409.310104,220.444415 C412.270947,220.951384 415.296673,220.951384 418.257516,220.444415 C426.765792,219.156953 430.608239,214.774105 429.922088,207.350657 C428.93403,196.61268 423.206954,191.042811 412.74086,190.64105 C405.720366,190.172134 398.727664,191.895377 392.732689,195.571753 C392.732689,194.119935 394.32456,192.01069 397.261287,189.052267 C401.89967,184.450277 404.616829,181.710997 405.30298,180.834428 C411.450896,173.493158 410.462838,167.138028 402.338807,162.152539 C396.355568,158.500166 389.365973,162.736919 381.370024,174.862798 C378.215669,179.517783 375.644065,184.540621 373.712576,189.819266"/>
        <path stroke="#043689" stroke-width="4.31" d="M405.158614,219.113565 C406.374135,220.008394 407.821413,220.533075 409.327005,220.62473 C412.28543,221.133234 415.308685,221.133234 418.267109,220.62473 C426.768434,219.333371 430.607742,214.937254 429.922151,207.491332 C428.934901,196.720846 423.212503,191.134114 412.754959,190.731137 C405.7402,190.260801 398.753211,191.989262 392.763133,195.676768 C392.763133,194.220554 394.353704,192.104923 397.288032,189.137544 C401.922625,184.521622 404.637565,181.774049 405.323155,180.894826 C411.466049,173.53133 410.478798,167.156961 402.361403,162.156378 C396.383052,158.492948 389.399168,162.742527 381.40975,174.905117 C378.252635,179.580826 375.682859,184.628634 373.758557,189.934341 C372.105366,193.624641 371.344321,197.653607 371.537243,201.693953 C369.981156,201.22779 368.50253,200.533368 367.149463,199.633273 C365.149252,198.395931 363.048474,197.32976 360.869451,196.446088 C355.055642,194.24803 350.503319,195.456962 347.157636,200.237739 C342.303654,207.299001 342.084265,212.217157 346.554317,215.047157 C348.620634,216.144906 350.77663,217.064095 352.99887,217.79473 C355.01252,218.433064 356.877661,219.470183 358.483596,220.844536 C324.642836,258.999165 288.498492,268.405023 250.050563,249.06211 C236.87562,242.149693 224.804215,233.305824 214.235302,222.822788 C209.152899,217.047795 203.770411,211.545026 198.110208,206.337351 M404.747259,218.344245 C404.836563,218.482104 404.910152,218.629562 404.966648,218.783856 M195.011338,231.972206 C195.450116,231.972206 200.496064,236.917838 210.066911,246.61677 C221.283646,256.811986 234.108712,265.074987 248.021214,271.070169 C290.198757,288.581367 331.663286,276.592791 372.4148,235.104439 C387.186995,241.53376 397.160055,241.002563 402.33398,233.510847 C404.169881,230.760886 405.213644,227.5571 405.350579,224.251526 C405.652429,222.414894 405.520944,220.532969 404.966648,218.756381"/>
        <path fill="#3793D1" fill-rule="nonzero" d="M164.172324,230.724167 C166.288742,229.59552 166.288742,226.016882 164.172324,219.933199 C162.055907,213.849515 160.379265,211.041661 158.867538,211.674804 C121.975253,227.108052 90.3439445,252.926092 67.8066229,286.000352 C60.7671574,296.037636 54.6931073,306.720351 49.6659033,317.905282 C47.2471407,323.410878 45.4055828,327.705243 44.1687155,331.063657 C33.6965729,328.69625 24.7361568,329.687258 17.3699252,333.816455 C11.0028467,337.603863 6.08679659,343.419103 3.40706832,350.333243 C0.811253898,356.408211 -0.327765368,363.007658 0.08126973,369.60283 C0.52104475,375.934265 2.28014483,379.788183 5.22114028,381.247166 L61.1550257,346.589438 C66.2399244,334.036679 70.2803574,324.704693 73.0839231,318.373258 C77.4833862,308.407197 82.8701207,298.908354 89.1631973,290.019438 C104.720239,268.510909 129.668309,248.67241 164.007409,230.503943"/>
        <path stroke="#043689" stroke-width="4.31" d="M61.3199413,347.645795 C66.40484,335.015417 70.445273,325.625728 73.2488388,319.255143 C77.6483019,309.227458 83.0350364,299.66988 89.3281129,290.726 C104.885154,269.084475 129.833225,249.123308 164.172324,230.842498 C166.288742,229.706872 166.288742,226.106106 164.172324,219.984805 C162.055907,213.863503 160.379265,211.038287 158.867538,211.675346 C121.975253,227.204023 90.3439445,253.181706 67.8066229,286.460478 C60.7671574,296.559825 54.6931073,307.308596 49.6659033,318.562688 C47.2471407,324.102327 45.4055828,328.423246 44.1687155,331.802426 C33.6965729,329.420381 24.7361568,330.417516 17.3699252,334.572246 C11.0028467,338.383073 6.08679659,344.234271 3.40706832,351.191164 C0.811253898,357.303696 -0.327765368,363.943949 0.08126973,370.579902 C0.52104475,376.950487 2.28014483,380.828235 5.22114028,382.296239 M17.7547284,367.062231 C17.4920419,368.581908 17.3359019,370.118344 17.2874674,371.660132 C17.0434788,375.818068 17.1722686,379.989709 17.6722705,384.12432 C19.1290253,395.757563 22.6197395,402.017356 28.226871,403.014491 C31.1953524,404.085488 33.1468541,400.392395 34.081376,391.935212 C34.521151,382.379334 34.8234963,376.618109 35.0708698,374.873123 C35.2118588,383.847123 36.1965942,392.787457 38.0118652,401.574185 C40.5130857,410.576099 44.6084905,414.481544 50.4629955,413.179729 C53.0466738,412.653463 54.723316,407.64009 55.5478942,397.890324 C56.3175005,389.119229 56.1617468,383.31184 55.0806332,380.468158 C57.1897145,384.311508 59.7657463,387.875089 62.7492101,391.076568 C66.9270728,395.286694 70.1978995,395.896054 72.6166622,393.070838 C75.9699467,389.026901 75.365256,380.468158 70.6376746,367.5331 C66.7896431,356.896993 63.6012742,350.166331 61.1550257,347.424209 M18.6342784,364.984866 C18.2123197,365.684461 17.949481,366.469607 17.8646721,367.283817 M5.33108404,382.517825 C10.3610108,384.872172 13.7692672,383.431865 15.665797,378.086113 C16.4903752,373.266627 17.1775236,369.776654 17.8646721,367.283817"/>
        <path fill="#3793D1" fill-rule="nonzero" d="M248.978139,31.7799813 C228.522631,10.5933271 202.016387,0 169.459408,0 C136.555106,0 109.573578,10.9680695 88.5148248,32.9042084 C78.6367225,43.2047494 71.0078724,55.4463577 66.112479,68.8520561 C60.978922,83.0318433 58.786464,98.1084479 59.6687198,113.163057 C61.3870556,146.067265 71.8341715,173.167537 91.0100677,194.463872 C111.218793,216.948414 137.432554,228.163265 169.459408,228.163265 C201.486262,228.163265 228.193588,216.509691 248.978139,193.092863 C268.885241,170.699721 278.847933,143.279548 278.866213,110.832342 C278.866213,78.8055792 268.903522,52.4273721 248.978139,31.6977208"/>
        <path stroke="#043689" stroke-width="4.31" d="M169.45689,0 C136.55183,0 109.569681,10.968092 88.510443,32.9042287 C78.6321134,43.2047686 71.0030877,55.4463756 66.1075816,68.8520727 C60.987289,83.0352135 58.7951818,98.1090567 59.663674,113.163069 C61.3820494,146.067274 71.8294058,173.167543 91.0057434,194.463875 C111.214934,216.948415 137.429298,228.163265 169.45689,228.163265 C201.484481,228.163265 228.192421,216.509693 248.977451,193.092867 C268.885012,170.699727 278.847933,143.279556 278.866213,110.832354 C278.866213,78.8055947 268.903292,52.4365304 248.977451,31.7251613 C228.558033,10.5567894 202.051179,-0.0182564554 169.45689,0 Z"/>
        <path fill="#0E5CAB" fill-rule="nonzero" d="M158.534483 172.743481C158.300469 172.567971 158.066455 172.567971 157.656932 172.743481 155.726319 173.796542 156.048088 173.796542 158.534483 172.743481M187.332348 172.171527C181.798476 168.034436 174.189401 167.568671 164.007077 170.829027 161.240141 172.116731 159.275616 173.020864 157.975156 173.705813 158.971253 174.226374 157.975156 178.774435 155.20822 187.404791 152.994671 193.925504 148.263211 207.295707 140.93083 227.652388 124.716585 273.954934 115.853166 309.435287 114.340575 334.093447 112.569736 362.011964 119.874447 384.094717 136.476063 400.506092 143.387687 407.46166 151.823178 412.748921 161.129463 415.958539 169.888255 419.071098 179.283713 420.011775 188.494461 418.698335 197.748112 417.405974 206.481863 413.678025 213.784256 407.90354 221.96931 401.254543 228.287128 392.630342 232.129042 382.861809 242.108458 358.422832 241.038576 326.59554 228.919397 287.379932 217.999222 252.036569 209.587737 225.880654 203.68494 208.912186 195.992858 186.993821 190.569663 174.719537 187.360017 172.226323"/>
        <path fill="#0E5CAB" fill-rule="nonzero" d="M373.904698 190.065801C372.250854 193.754861 371.489316 197.780364 371.681568 201.817312 370.124208 201.352556 368.644374 200.66023 367.2902 199.762852 365.288353 198.529245 363.185858 197.466292 361.005054 196.585287 355.186491 194.393863 350.630447 195.599146 347.282028 200.365493 342.424077 207.405443 342.204509 212.308754 346.678215 215.102819 348.733681 216.260019 350.893012 217.222955 353.128037 217.979063 355.143334 218.61547 357.009999 219.649459 358.617247 221.019664 324.748821 259.05913 288.574926 268.436598 250.095562 249.152068 236.909848 242.260515 224.828573 233.44334 214.25102 222.991945 209.164461 217.234382 203.777572 211.748222 198.112742 206.556266L195.011338 232.113747C195.450475 232.113747 200.500548 237.044451 210.07922 246.714109 221.305126 256.878553 234.140677 265.116613 248.064554 271.0937 290.276581 288.552044 331.77501 276.599653 372.559841 235.236526 387.344114 241.646441 397.325328 241.116847 402.503483 233.647744 404.340885 230.906083 405.385502 227.711967 405.522549 224.416371 405.815889 222.586545 405.693959 220.714339 405.16575 218.937811 406.371553 219.830561 407.811483 220.354022 409.310104 220.444415 412.270947 220.951384 415.296673 220.951384 418.257516 220.444415 426.765792 219.156953 430.608239 214.774105 429.922088 207.350657 428.93403 196.61268 423.206954 191.042811 412.74086 190.64105 405.720366 190.172134 398.727664 191.895377 392.732689 195.571753 392.732689 194.119935 394.32456 192.01069 397.261287 189.052267 401.89967 184.450277 404.616829 181.710997 405.30298 180.834428 411.450896 173.493158 410.462838 167.138028 402.338807 162.152539 396.355568 158.500166 389.365973 162.736919 381.370024 174.862798 378.215669 179.517783 375.644065 184.540621 373.712576 189.819266M164.172324 230.724167C166.288742 229.59552 166.288742 226.016882 164.172324 219.933199 162.055907 213.849515 160.379265 211.041661 158.867538 211.674804 121.975253 227.108052 90.3439445 252.926092 67.8066229 286.000352 60.7671574 296.037636 54.6931073 306.720351 49.6659033 317.905282 47.2471407 323.410878 45.4055828 327.705243 44.1687155 331.063657 33.6965729 328.69625 24.7361568 329.687258 17.3699252 333.816455 11.0028467 337.603863 6.08679659 343.419103 3.40706832 350.333243.811253898 356.408211-.327765368 363.007658.08126973 369.60283.52104475 375.934265 2.28014483 379.788183 5.22114028 381.247166L61.1550257 346.589438C66.2399244 334.036679 70.2803574 324.704693 73.0839231 318.373258 77.4833862 308.407197 82.8701207 298.908354 89.1631973 290.019438 104.720239 268.510909 129.668309 248.67241 164.007409 230.503943"/>
        <path fill="#0E5CAB" fill-rule="nonzero" d="M248.993302,31.8074211 C228.548172,10.620769 202.055376,0.0183029261 169.514915,0 C136.974453,-0.0182573018 110.034021,10.9498111 88.6936169,32.904228 C67.8647982,54.6484235 59.478458,80.1766027 59.478458,112.806606 C59.478458,142.968794 72.3868444,173.843907 94.5859801,198.028497 C104.260418,208.585263 116.97696,215.220945 130.214223,220.430777 C142.700849,225.495137 156.041391,228.119914 169.514915,228.163265 C201.744771,228.163265 228.237567,216.482272 248.993302,193.120287 C268.890305,170.635747 278.847942,143.215576 278.866213,110.859774 C278.866213,78.8878546 268.908576,52.5370704 248.993302,31.8074211"/>
        <path fill="#D8272A" fill-rule="nonzero" d="M205.276828,84.0140375 C192.329069,83.6981352 179.405507,82.7266302 166.555583,81.1032388 C122.155221,74.893535 92.6256612,78.0168682 77.9669039,90.4732383 C67.6043609,99.2887999 64.1471068,114.073809 67.5951416,134.828265 C69.2464213,144.397003 72.5802891,153.595694 77.4414012,161.995719 C83.0457215,172.225265 90.3831125,181.399419 99.1252989,189.10773 C121.251725,208.30976 148.789906,216.192018 181.739843,212.754503 C212.384943,209.538764 236.115535,195.502246 252.931619,170.64495 C259.648322,160.730534 264.659331,149.7577 267.756324,138.182614 C270.470301,128.715264 271.527716,118.848281 270.881682,109.019184 C270.616246,101.965894 266.902537,95.4959642 260.952448,91.7207234 C255.974002,88.5881496 248.257411,86.453564 237.885649,85.3724102 C233.37739,84.9843037 222.535441,84.4575877 205.276828,83.9308718"/>
        <path fill="#1C1616" fill-rule="nonzero" d="M199.732332,87.3561033 C184.581464,88.3494078 173.117673,89.0300052 165.34096,89.3978958 C141.846136,90.6487236 124.819708,92.4054008 114.261676,94.6679276 C92.3038966,99.468899 81.9562932,107.691252 82.9443932,119.197029 C83.7650286,127.334544 85.8971669,135.283645 89.2572548,142.732825 C93.2801103,152.065262 98.921372,160.604423 105.91772,167.951721 C123.904801,186.769322 148.003463,195.405552 178.213708,193.860412 C204.245608,193.179562 228.501839,180.437552 243.922363,159.343083 C250.364213,150.930211 255.338773,141.479146 258.634075,131.3926 C261.429376,123.534895 262.64228,115.196809 262.202214,106.863499 C261.214114,95.1461853 250.601187,88.5701421 230.363434,87.135369 C220.157779,86.5968134 209.929258,86.6705223 199.732332,87.3561033"/>
        <path fill="#0E5CAB" fill-rule="nonzero" d="M82.3941299,58.8186712 C77.5760587,64.9287738 73.109063,71.3121688 69.0150952,77.9374859 C57.4691797,97.0563005 56.4021401,108.284811 65.8413364,112.064432 C77.5280405,124.685674 92.1921956,134.119498 108.4682,139.487378 C126.521977,145.606908 145.485815,148.546633 164.528818,148.177749 C184.867118,147.930355 205.061152,144.696118 224.474554,138.576959 C243.990191,132.650771 262.377543,123.454929 278.866213,111.37472 L238.291349,34.1269841 L89.3162072,50.4317741 L82.3941299,58.8186712 Z"/>
        <path fill="#FFF" fill-rule="nonzero" d="M154.436159 98.6988482C159.938438 92.8013373 162.104336 84.5939297 160.214527 76.8024227 158.324718 69.0109157 152.626625 62.655416 145.012667 59.8466759 127.222446 52.6427993 106.748553 57.5165212 94.2580726 71.9285883 88.7157561 77.8140463 86.5271511 86.0403815 88.4264237 93.8480748 90.3256962 101.655768 96.0612579 108.010568 103.709118 110.780761 121.474958 117.981487 141.924573 113.143735 154.436159 98.7802993M199.272584 59.801868C191.616952 62.5666687 185.873915 68.936332 183.977864 76.7654048 182.081814 84.5944776 184.285117 92.8408963 189.84565 98.7270724 202.361396 113.147396 222.839516 117.999981 240.618789 110.758499 248.204695 107.932859 253.878809 101.577374 255.767144 93.7910663 257.655478 86.0047587 255.512408 77.8004364 250.045723 71.8877357 237.523084 57.4770511 217.046044 52.6356997 199.272584 59.8835293"/>
        <path fill="#1C1616" fill-rule="nonzero" d="M151.921084 86.0374546C152.639629 81.1611767 151.276333 76.2069708 148.165631 72.3901746 141.827874 64.3968432 130.26611 62.9818693 122.197075 69.212041 118.291353 72.2229301 115.772791 76.6954398 115.218857 81.6040916 114.555667 86.4895922 115.944636 91.4319362 119.054213 95.2513716 122.040267 99.1869318 126.509483 101.717375 131.412583 102.248607 136.277794 102.835441 141.17578 101.455393 145.024103 98.4134471 148.872426 95.3715016 151.354244 90.9181093 151.921084 86.0374546M198.193911 69.2720561C192.310239 73.8917938 189.783263 81.6081289 191.791365 88.8227723 193.799467 96.0374156 199.947162 101.329481 207.36765 102.231168 213.939323 103.073553 220.45734 100.321327 224.445363 95.0201223 228.433385 89.7189177 229.279326 82.6823699 226.661794 76.5838196 224.044262 70.4852693 218.364998 66.2607296 211.781681 65.5151969 206.926874 64.7997547 201.995611 66.1631908 198.193911 69.2720561"/>
        <path fill="#DB5284" fill-rule="nonzero" d="M192.692709,98.2771159 C186.896259,92.1729928 178.941755,88.7301587 170.634921,88.7301587 C162.328086,88.7301587 154.373583,92.1729928 148.577132,98.2771159 C136.385098,111.160434 136.385098,131.652716 148.577132,144.536035 C154.381043,150.625995 162.332756,154.058957 170.634921,154.058957 C178.937085,154.058957 186.888799,150.625995 192.692709,144.536035 C204.884743,131.652716 204.884743,111.160434 192.692709,98.2771159"/>
      </g>
    </g>
  </g>
</svg>
