<svg xmlns="http://www.w3.org/2000/svg" xmlns:xlink="http://www.w3.org/1999/xlink" width="251" height="246" viewBox="0 0 251 246">
  <defs>
    <circle id="index_icon01-a" cx="130" cy="130" r="130"/>
  </defs>
  <g fill="none" fill-rule="evenodd" transform="translate(-4 -14)">
    <mask id="index_icon01-b" fill="#fff">
      <use xlink:href="#index_icon01-a"/>
    </mask>
    <g mask="url(#index_icon01-b)">
      <g transform="translate(-51 14)">
        <path fill="#F49C00" fill-rule="nonzero" d="M300.687824,305.670466 C298.939282,308.019311 297.505183,310.585903 296.421843,313.305248 C295.398791,315.268292 295.945616,317.681971 297.715253,319.014344 C299.122119,319.943204 302.003925,319.490102 306.360672,317.58707 C310.717418,315.684038 313.009248,314.143488 313.826138,312.716215 C315.233004,315.910589 316.617179,318.923723 317.978662,321.778271 C320.701629,327.28347 322.902694,330.364569 324.536473,331.066878 C329.778184,333.332392 332.705373,331.474671 333.295349,325.471059 C333.518868,321.435465 333.190606,317.388282 332.31962,313.441179 C334.772829,315.982266 337.567926,318.170549 340.624668,319.943204 C345.162945,322.775097 348.02206,324.15706 349.428926,324.043785 C354.829477,323.590682 355.782515,320.283031 352.242658,314.188799 C349.859522,310.595631 347.236503,307.166933 344.391438,303.92602 C345.979835,305.353294 349.179321,306.35012 353.989895,306.871188 C359.935039,307.535739 363.573225,306.584223 364.904453,304.016641 C368.56533,296.857616 363.051323,291.80552 348.362431,288.860352 C340.742668,287.386103 333.001354,286.62762 325.239906,286.594838 L315.074165,278.710849 C306.378932,272.47316 297.282806,266.812299 287.844499,261.764804 C274.90762,254.65417 261.205378,249.030024 247,245 L254.715072,263.350664 C258.754139,264.709972 262.815898,266.205211 266.877656,267.881692 C275.283166,271.302307 283.369969,275.456757 291.043984,280.296709 C296.629116,283.64863 301.703253,287.783854 306.111066,292.575795 C307.064105,293.693448 306.882573,295.528515 305.566473,298.080994 C305.02188,299.145785 303.297334,301.660506 300.665133,305.670466"/>
        <path fill="#00398A" fill-rule="nonzero" d="M231.956916,185.213297 L231.458594,174 L125.610549,176.242659 L124.545953,186.581319 C111.831201,223.958975 107.452011,258.92951 111.408382,291.492924 C126.543919,295.29923 142.021291,297.620372 157.616388,298.422741 C187.051534,300.113549 216.584333,298.086326 245.502204,292.389988 C249.669985,259.153776 245.139788,223.39831 231.911614,185.12359"/>
        <path stroke="#00398A" stroke-width="3.85" d="M231.918052,185.12359 C245.132711,223.413261 249.663452,259.168727 245.510273,292.389988 C216.588931,298.086326 187.052587,300.113549 157.613909,298.422741 C142.01694,297.620372 126.53771,295.29923 111.400356,291.492924 C107.458612,258.92951 111.838328,223.958975 124.539504,186.581319 L125.604228,176.242659 L231.464978,174 L231.918052,185.12359 Z"/>
        <path fill="#003E93" fill-rule="nonzero" d="M290.185878,299 C297.805615,286.763426 305.410322,274.489085 313,262.176977 L229.11527,199 C217.092018,207.112395 209.720261,216.274719 207,226.48697 L290.185878,299 Z"/>
        <path stroke="#003E93" stroke-linecap="round" stroke-linejoin="round" stroke-width="4.28" d="M290.185878,299 L207,226.48697 C209.660145,216.274719 217.031901,207.112395 229.11527,199 L313,262.176977 C305.410322,274.489085 297.805615,286.763426 290.185878,299 Z"/>
        <path fill="#E83434" fill-rule="nonzero" d="M247,213.294844 L227.776119,199 C215.393588,207.267454 207.801548,216.604905 205,227.012352 L222.389718,242 L247,213.294844 Z"/>
        <polygon fill="#F3F3F3" fill-rule="nonzero" points="264 225.486 247.471 213 223 241.795 238.098 255"/>
        <polygon fill="#FEDB00" fill-rule="nonzero" points="297 250.382 278.907 237 254 267.607 271.913 283"/>
        <polygon fill="#0076BF" fill-rule="nonzero" points="280 236.946 263.821 225 238 253.878 254.593 268"/>
        <path fill="#003E93" fill-rule="nonzero" d="M76.2936097,305 C68.1957398,293.17326 60.0978699,281.30895 52,269.407072 L132.829016,203 C145.177893,210.513812 152.901554,219.289945 156,229.328398 L76.2936097,305 Z"/>
        <path stroke="#003E93" stroke-linecap="round" stroke-linejoin="round" stroke-width="4.28" d="M76.3834197,305 L156,229.328398 C152.916523,219.304972 145.192861,210.52884 132.829016,203 L52,269.407072 C60.1427749,281.30895 68.2705815,293.17326 76.3834197,305 Z"/>
        <path fill="#E83434" fill-rule="nonzero" d="M115,217.855598 L133.340611,203 C145.949782,210.57166 153.836245,219.41536 157,229.531098 L140.539301,245 L115,217.855598 Z"/>
        <polygon fill="#F3F3F3" fill-rule="nonzero" points="100 230.018 115.719 217 141 244.341 126.69 258"/>
        <polygon fill="#FEDB00" fill-rule="nonzero" points="67 257.275 84.591 243 111 272.721 93.682 289"/>
        <polygon fill="#0076BF" fill-rule="nonzero" points="83 242.76 98.396 230 125 258.018 109.309 273"/>
        <path fill="#FEDB00" fill-rule="nonzero" d="M166.501887,190.469771 C152.580402,190.664952 138.658323,190.12305 124.796226,188.846421 C122.667925,195.117443 120.743396,201.588604 119,208.215429 C134.048064,209.643765 149.167685,210.215488 164.283019,209.927729 C189.278117,209.465189 214.225228,207.586691 239,204.301599 C237.50566,198.808896 235.603774,192.693538 233.339623,186 C211.157033,188.6517 188.845927,190.136331 166.501887,190.447533"/>
        <path fill="#E83434" fill-rule="nonzero" d="M124,188.193497 C137.7927,189.581024 151.645081,190.17 165.496871,189.957863 C187.729051,189.619627 209.928462,188.00603 232,185.123984 L231.639549,184.084699 L231.14393,172 L125.869837,174.41694 L124.743429,185.559033 L124,188.193497 Z"/>
        <path fill="#F3F3F3" fill-rule="nonzero" d="M113.74587,231.142418 C112.374331,238.976374 111.457563,246.880498 111,254.816557 C127.279591,256.600897 143.664278,257.292908 160.03988,256.887765 C189.159537,256.33049 218.209707,253.88275 247,249.560586 C246.358298,241.99426 245.328234,234.464504 243.913733,227 C216.24608,230.899218 188.351655,233.049095 160.40297,233.436337 C144.840598,233.681385 129.278383,232.937461 113.81395,231.209231"/>
        <path fill="#0076BF" fill-rule="nonzero" d="M118.759414,208.052653 C116.719665,216.08291 115.133194,223.632852 114,230.70248 C129.444491,232.44962 144.986637,233.201684 160.52894,232.953954 C188.462827,232.587747 216.344077,230.436902 244,226.514739 C242.489075,218.859728 240.781729,211.354815 238.877964,204 C214.078716,207.326023 189.10696,209.227926 164.087169,209.696229 C148.956903,209.987573 133.822344,209.408727 118.759414,207.962594"/>
        <path fill="#E83434" fill-rule="nonzero" d="M223.855182,195.103685 C215.200642,198.391846 201.59416,200.270795 182.96759,200.7629 C164.341021,201.255006 149.939502,199.644478 139.808466,195.864212 C126.61086,190.853682 118.910363,189.15368 116.616115,190.383945 C112.073049,191.084822 109.869663,194.596667 110.005955,200.919479 C110.105927,203.224067 110.417643,205.515005 110.937283,207.764222 L110.937283,207.764222 C112.504641,215.123438 114.912466,219.664231 118.092612,221.408969 L118.092612,221.408969 C125.941459,226.405411 134.468416,230.283726 143.420203,232.928716 C155.53304,236.650857 168.19606,238.33717 180.87778,237.916877 L180.87778,237.916877 C193.018454,238.399288 205.15087,236.77908 216.722569,233.130031 C225.977388,230.508171 234.798827,226.582947 242.913343,221.476075 L242.913343,221.476075 C246.093489,219.731337 248.471027,215.183087 250.045956,207.831327 L250.045956,207.831327 C250.544833,205.623052 250.863861,203.379078 251,201.120795 L251,200.986585 C251,194.678685 248.728467,191.16684 244.344409,190.518155 C241.982014,189.176049 235.129557,190.749296 223.787036,195.237896 M181.195795,225.211604 L180.83235,225.211604 C169.510091,225.606429 158.200584,224.132108 147.37267,220.849758 L147.37267,220.849758 C139.65789,218.572142 132.291791,215.276415 125.475093,211.052382 C124.507779,209.24877 123.855092,207.297927 123.54429,205.281325 L123.54429,205.281325 C123.407998,204.722114 123.317137,204.185271 123.226276,203.715534 C125.664388,204.565535 129.541137,205.997115 134.856524,208.010274 C146.289906,212.483962 162.395074,214.407648 183.172028,213.781332 L183.172028,213.781332 C203.888408,213.199752 219.031961,211.007645 228.602686,207.205011 L228.602686,207.205011 C232.487007,205.661588 235.417284,204.49843 237.438949,203.782639 C237.438949,204.252377 237.234511,204.744482 237.143649,205.281325 L237.143649,205.281325 C236.841747,207.294017 236.204737,209.243881 235.258277,211.052382 C228.176212,215.35144 220.534806,218.684888 212.542948,220.961601 L212.542948,220.961601 C202.403258,224.206304 191.757462,225.645475 181.104933,225.211604"/>
        <path fill="#FDD100" fill-rule="nonzero" d="M181.408115,224.923019 L181.770883,224.923019 C192.403576,225.365507 203.029548,223.897752 213.150358,220.588603 L213.150358,220.588603 C221.127335,218.266671 228.754511,214.867015 235.823389,210.482571 C236.768087,208.638149 237.40391,206.649558 237.705251,204.59689 L237.705251,204.59689 C237.705251,204.049385 237.909308,203.547505 238,203.068438 C235.9821,203.798445 233.057279,204.984706 229.180191,206.558784 L229.180191,206.558784 C219.627287,210.436945 204.511933,212.672591 183.834129,213.265722 L183.834129,213.265722 C163.095863,213.813227 147.020684,211.851334 135.608592,207.380041 C130.303103,205.326897 126.433572,203.866883 124,203 C124,203.479067 124.181384,204.026572 124.317422,204.59689 L124.317422,204.59689 C124.627645,206.653545 125.279117,208.643136 126.24463,210.482571 C133.048634,214.7905 140.401018,218.151686 148.101432,220.47454 L148.101432,220.47454 C158.909184,223.822082 170.197631,225.325686 181.498807,224.923019"/>
        <path fill="#FDD100" fill-rule="nonzero" d="M227.107673,202.626974 C217.728822,206.165864 202.942548,208.213524 182.636662,208.725439 C162.330777,209.237354 146.736754,207.479038 135.518033,203.405975 C124.299312,199.332912 117.882203,197.574595 116.109645,198.08651 C114.673649,198.509396 113.978088,199.933856 114,202.33763 C114.104637,204.235732 114.382509,206.120512 114.830711,207.968696 C115.975021,213.087846 117.523204,216.292879 119.497699,217.650566 C127.092667,222.257071 135.28211,225.820993 143.842324,228.244981 C155.741491,231.76841 168.139484,233.347053 180.54998,232.918988 C192.290134,233.379445 204.024597,231.874573 215.260704,228.467553 C224.122428,226.042575 232.607769,222.425589 240.480389,217.717338 C242.432447,216.35965 244.003068,213.265903 245.147377,208.035467 C245.578075,206.183164 245.86314,204.300484 246,202.404402 C246,200.000627 245.326877,198.576168 243.756256,198.153282 C242.185635,197.730395 236.419212,199.132597 227.085236,202.604717"/>
        <path fill="#E83434" fill-rule="nonzero" d="M130.668841 198.58684C130.494702 199.241294 130.277029 200.059362 130.015821 201.08779 129.253572 203.231912 128.706298 205.457156 128.38327 207.725827 128.081154 209.198485 127.956784 210.706767 128.013226 212.213514 128.009611 213.709662 128.673149 215.117275 129.798147 216 131.151866 213.845015 132.016637 211.379485 132.323158 208.801002 132.497343 207.548472 132.766706 206.313352 133.12855 205.10801 133.650966 203.518621 133.999243 202.326579 134.238684 201.508511 134.586961 200.176229 134.804635 199.171174 134.891704 198.65696 135.122334 197.680834 134.981337 196.646267 134.499892 195.782036 134.11148 195.112738 133.338056 194.829394 132.649668 195.104208 131.935795 195.357034 131.332188 195.880533 130.951816 196.57673L131.82251 196.389743C131.225941 196.968136 130.820974 197.739373 130.668841 198.58684M151.965607 204.413296L152.84024 204.413296C152.248682 205.003588 151.850139 205.780961 151.703217 206.6311 151.572022 207.238077 151.353364 208.055163 151.047242 209.129046 150.297754 211.269842 149.741298 213.482107 149.385439 215.735765 149.08091 217.174853 148.955921 218.650612 149.01372 220.124681 149.047721 221.640613 149.713094 223.0614 150.828584 224 152.2344 221.849214 153.100162 219.349475 153.343153 216.739613 153.522814 215.510316 153.800798 214.299715 154.174055 213.121092 154.698834 211.556957 155.048688 210.343002 155.267346 209.502571 156.141979 206.6311 156.229442 204.833512 155.551602 203.782973 155.153677 203.110821 154.369043 202.828333 153.671141 203.10596 152.969627 203.351497 152.367831 203.845738 151.965607 204.506678M182.901961 219.370669C182.998699 217.110462 182.946254 214.844841 182.745098 212.594163 182.745098 211.533894 182.745098 210.658019 182.745098 210.012637 182.742449 209.193678 182.538145 208.393136 182.156863 207.707704L182.901961 207.984296C182.677794 207.26781 182.256939 206.659545 181.705882 206.255595 181.143278 205.842452 180.41291 205.937848 179.941176 206.486089 179.156863 207.269766 178.862745 209.090664 179.058824 212.01793 179.058824 212.847706 179.176471 214.09237 179.294118 215.751923 179.373155 216.979465 179.373155 218.212274 179.294118 219.439817 179.033188 222.003107 179.323069 224.602394 180.137255 227 181.270199 226.358226 182.113217 225.174088 182.45098 223.750043 182.789563 222.330969 182.974034 220.867235 183 219.393718M207.281923 201.104324C206.586082 200.829204 205.804285 201.112863 205.411667 201.782907 204.77358 202.625286 204.883595 204.544038 205.697707 207.515763 205.917737 208.334743 206.269785 209.528113 206.797857 211.119273 207.158177 212.305298 207.437606 213.517411 207.633971 214.746182 207.935292 217.340539 208.801712 219.824331 210.164317 222 211.303549 221.126161 211.982074 219.726456 211.990567 218.232694 212.038227 216.72333 211.905141 215.21365 211.594513 213.740007 211.242073 211.474625 210.689552 209.249633 209.944287 207.094574 209.702254 206.0416 209.482224 205.222621 209.284197 204.590837 209.130416 203.742425 208.721065 202.970329 208.118038 202.391292L208.998158 202.578487C208.618455 201.877148 208.006532 201.351536 207.281923 201.104324M230.917406 199.219367C230.674065 198.168612 230.452846 197.351357 230.253749 196.744254 230.13529 195.859709 229.746992 195.039996 229.147654 194.409241L229.988286 194.596042C229.626816 193.900652 229.03661 193.369047 228.329144 193.101633 227.61785 192.82829 226.82255 193.121123 226.42666 193.802137 225.785125 194.712792 225.873613 196.627503 226.647879 199.522919 226.869098 200.340174 227.245171 201.53103 227.753974 203.118839 228.125271 204.323483 228.406346 205.557051 228.594606 206.80816 228.905004 209.380656 229.775772 211.842284 231.138625 214 232.290308 213.123168 232.973275 211.716138 232.974743 210.217279 233.055104 208.713926 232.943493 207.205994 232.642914 205.734054 232.268722 203.470715 231.690939 201.250188 230.917406 199.102617"/>
        <path fill="#F49C00" fill-rule="nonzero" d="M303.984727,127.988946 C304.208516,120.628558 301.89689,113.408839 297.42272,107.494352 C293.944115,102.199561 287.960209,99 281.536351,99 C275.112493,99 269.128586,102.199561 265.649981,107.494352 C256.78334,119.782785 256.78334,136.217215 265.649981,148.505648 C269.128586,153.800439 275.112493,157 281.536351,157 C287.960209,157 293.944115,153.800439 297.42272,148.505648 C301.900148,142.584362 304.211855,135.356602 303.984727,127.988946"/>
        <path stroke="#E83927" stroke-width="3.85" d="M303.984727,127.988946 C304.211855,135.356602 301.900148,142.584362 297.42272,148.505648 C293.944115,153.800439 287.960209,157 281.536351,157 C275.112493,157 269.128586,153.800439 265.649981,148.505648 C256.78334,136.217215 256.78334,119.782785 265.649981,107.494352 C269.128586,102.199561 275.112493,99 281.536351,99 C287.960209,99 293.944115,102.199561 297.42272,107.494352 C301.89689,113.408839 304.208516,120.628558 303.984727,127.988946 L303.984727,127.988946 Z"/>
        <path fill="#F49C00" fill-rule="nonzero" d="M303.984727 127.988946C304.208516 120.628558 301.89689 113.408839 297.42272 107.494352 293.944115 102.199561 287.960209 99 281.536351 99 275.112493 99 269.128586 102.199561 265.649981 107.494352 256.78334 119.782785 256.78334 136.217215 265.649981 148.505648 269.128586 153.800439 275.112493 157 281.536351 157 287.960209 157 293.944115 153.800439 297.42272 148.505648 301.900148 142.584362 304.211855 135.356602 303.984727 127.988946M57.0139487 127.988946C56.8007045 120.62999 59.1113407 113.413576 63.5761485 107.494352 67.054856 102.199561 73.0389388 99 79.462986 99 85.8870331 99 91.8711159 102.199561 95.3498235 107.494352 104.216726 119.782785 104.216726 136.217215 95.3498235 148.505648 91.8711159 153.800439 85.8870331 157 79.462986 157 73.0389388 157 67.054856 153.800439 63.5761485 148.505648 59.1080904 142.579624 56.7973735 135.355173 57.0139487 127.988946"/>
        <path stroke="#E83927" stroke-width="3.85" d="M57.0139487,127.988946 C56.7973735,135.355173 59.1080904,142.579624 63.5761485,148.505648 C67.054856,153.800439 73.0389388,157 79.462986,157 C85.8870331,157 91.8711159,153.800439 95.3498235,148.505648 C104.216726,136.217215 104.216726,119.782785 95.3498235,107.494352 C91.8711159,102.199561 85.8870331,99 79.462986,99 C73.0389388,99 67.054856,102.199561 63.5761485,107.494352 C59.1113407,113.413576 56.8007045,120.62999 57.0139487,127.988946 Z"/>
        <path fill="#F49C00" fill-rule="nonzero" d="M57.0139487,127.988946 C56.8007045,120.62999 59.1113407,113.413576 63.5761485,107.494352 C67.054856,102.199561 73.0389388,99 79.462986,99 C85.8870331,99 91.8711159,102.199561 95.3498235,107.494352 C104.216726,119.782785 104.216726,136.217215 95.3498235,148.505648 C91.8711159,153.800439 85.8870331,157 79.462986,157 C73.0389388,157 67.054856,153.800439 63.5761485,148.505648 C59.1080904,142.579624 56.7973735,135.355173 57.0139487,127.988946"/>
        <path fill="#F49C00" fill-rule="nonzero" d="M254.569314,77.136482 C244.58587,69.6569182 233.385682,63.9421171 221.458013,60.2417215 C195.133277,51.9194262 166.866723,51.9194262 140.541987,60.2417215 C128.625772,63.9360017 117.439504,69.6515399 107.476106,77.136482 C98.3673212,83.8908989 90.7656166,92.4548657 85.1520942,102.28638 C74.2826353,121.34759 74.2826353,144.697671 85.1520942,163.758882 C90.7559147,173.578304 98.3600572,182.121905 107.476106,188.840929 C117.446889,196.330414 128.629924,202.067248 140.541987,205.80354 C166.876076,214.065487 195.123924,214.065487 221.458013,205.80354 C233.382264,202.062943 244.579531,196.326687 254.569314,188.840929 C263.672119,182.12063 271.261143,173.576631 276.847906,163.758882 C287.717365,144.697671 287.717365,121.34759 276.847906,102.28638 C271.251402,92.456546 263.664821,83.8921923 254.569314,77.136482"/>
        <path stroke="#E83927" stroke-width="3.85" d="M221.458013,60.2417215 C195.133277,51.9194262 166.866723,51.9194262 140.541987,60.2417215 C128.625772,63.9360017 117.439504,69.6515399 107.476106,77.136482 C98.3673212,83.8908989 90.7656166,92.4548657 85.1520942,102.28638 C74.2826353,121.34759 74.2826353,144.697671 85.1520942,163.758882 C90.7559147,173.578304 98.3600572,182.121905 107.476106,188.840929 C117.446889,196.330414 128.629924,202.067248 140.541987,205.80354 C166.876076,214.065487 195.123924,214.065487 221.458013,205.80354 C233.382264,202.062943 244.579531,196.326687 254.569314,188.840929 C263.672119,182.12063 271.261143,173.576631 276.847906,163.758882 C287.717365,144.697671 287.717365,121.34759 276.847906,102.28638 C271.251402,92.456546 263.664821,83.8921923 254.569314,77.136482 C244.58587,69.6569182 233.385682,63.9421171 221.458013,60.2417215 L221.458013,60.2417215 Z"/>
        <path fill="#F49C00" fill-rule="nonzero" d="M180.988645,54.0017333 C167.259339,53.933194 153.606497,56.0402435 140.541987,60.2438851 C128.625772,63.9381127 117.439504,69.6535694 107.476106,77.1384047 C98.3673212,83.8927254 90.7656166,92.4565701 85.1520942,102.287944 C74.2826353,121.348883 74.2826353,144.698631 85.1520942,163.75957 C90.7559147,173.578851 98.3600572,182.122331 107.476106,188.841259 C117.446889,196.330637 128.629924,202.067389 140.541987,205.803629 C166.876076,214.065457 195.123924,214.065457 221.458013,205.803629 C233.382264,202.063084 244.579531,196.326911 254.569314,188.841259 C263.672119,182.121056 271.261143,173.577178 276.847906,163.75957 C287.717365,144.698631 287.717365,121.348883 276.847906,102.287944 C271.251402,92.4582504 263.664821,83.8940188 254.569314,77.1384047 C244.58587,69.6589476 233.385682,63.944228 221.458013,60.2438851 C208.38626,56.0378719 194.725563,53.9307932 180.988645,54.0017333"/>
        <path fill="#E83434" fill-rule="nonzero" d="M260.074166,160.409923 L264,152 C225.800655,174.366816 187.003736,181.665853 147.609243,173.897113 C135.53419,171.548782 123.807866,167.708661 112.707901,162.46767 C108.276135,160.514924 104.024281,158.187535 100,155.51159 C108.093723,177.56527 124.273604,192.76725 148.539643,201.117527 C156.277643,203.731448 164.28301,205.50154 172.412343,206.396096 L182.533278,207 C208.62986,206.463196 230.021493,197.136234 246.708178,179.019113 C251.93287,173.389268 256.423014,167.137732 260.074166,160.409923"/>
        <path fill="#F092B1" fill-rule="nonzero" d="M181.150133,173.047832 L179.827056,173.047832 C173.896021,173.047832 166.953669,172.698555 159,172 C159.866073,176.586682 161.591997,180.968726 164.087003,184.915671 C167.554377,189.653694 172.998762,192.015113 180.420159,192 C188.039257,192 193.514058,189.585357 196.912997,184.915671 C199.408003,180.968726 201.133927,176.586682 202,172 C194.038727,172.706148 187.103979,173.047832 181.150133,173.047832"/>
        <path fill="#F49C00" fill-rule="nonzero" d="M233,165.39574 L227.301317,151 L142.947301,151 L127,167.283334 C133.61045,169.67094 140.386114,171.563655 147.271993,172.946113 C175.927295,178.812524 205.65128,176.190493 232.864853,165.39574"/>
        <path fill="#F3F3F3" fill-rule="nonzero" d="M122.053493 103.967359C129.891638 90.5254434 145.422036 83.5979214 160.638727 86.7559488 167.130321 87.9164889 172.622715 92.2309237 175.295894 98.2695776 177.969073 104.308232 177.473966 111.282562 173.974638 116.881483 170.327853 123.568246 164.497288 128.795927 157.460335 131.688194 150.594391 134.991435 142.810575 135.855212 135.389404 134.137425 128.916448 132.930318 123.439815 128.632719 120.719902 122.626042 118.05272 116.79242 118.497251 110.580281 121.986814 104.034156M240.038789 104.071118C232.210128 90.5543705 216.62905 83.5807577 201.364972 86.7619029 194.89759 87.9729827 189.417073 92.2520495 186.661793 98.2418212 184.061399 104.322826 184.53383 111.286136 187.931613 116.958108 195.820849 130.419359 211.365725 137.372763 226.627708 134.267323 233.121018 133.090166 238.611218 128.765079 241.287858 122.718305 243.964498 116.671532 243.480038 109.688193 239.994234 104.071118"/>
        <path fill="#231815" fill-rule="nonzero" d="M216.491397 100.412362C211.788193 95.8625462 204.211807 95.8625462 199.508603 100.412362 197.233696 102.619024 195.971851 105.632621 196.011474 108.764368 195.818957 113.070991 198.060918 117.133465 201.849466 119.342914 205.638013 121.552362 210.361987 121.552362 214.150534 119.342914 217.939082 117.133465 220.181043 113.070991 219.988526 108.764368 220.038757 105.630659 218.775278 102.61316 216.491397 100.412362M162.582825 100.504499C159.151386 97.0973568 153.933826 96.0636976 149.405601 97.8939377 144.877375 99.7241779 141.949649 104.050038 142.011474 108.819127 141.818957 113.106476 144.060918 117.150769 147.849466 119.35033 151.638013 121.54989 156.361987 121.54989 160.150534 119.35033 163.939082 117.150769 166.181043 113.106476 165.988526 108.819127 166.028149 105.701396 164.766304 102.701285 162.491397 100.504499"/>
        <path fill="#E83827" fill-rule="nonzero" d="M180.074107,115.004315 C167.664464,114.969463 156.960214,123.709285 154.513097,135.874408 C152.06598,148.039532 158.558301,160.238078 170.016311,165.003696 C181.474321,169.769314 194.7033,165.773254 201.606201,155.461382 C208.509102,145.149509 207.161259,131.396978 198.387644,122.621285 C193.614283,117.637142 186.974377,114.875471 180.074107,115.004315"/>
        <path fill="#231815" fill-rule="nonzero" d="M221.295824,8.69342406 C217.292041,8.13000372 213.219811,8.29918373 209.276004,9.19278524 C200.7401,10.6910828 193.298326,15.8995184 188.941721,23.4245787 C189.126714,17.6372486 186.390204,12.1474324 181.666566,8.82961348 C180.128644,7.68707096 178.450386,6.74869369 176.67337,6.03773055 C175.069221,5.37948173 174.414005,5.22059409 174.75291,5.51567114 C177.690084,11.485307 176.085935,18.1358899 169.872682,25.5128163 C167.409975,22.879821 166.641791,17.9089075 167.613317,10.713567 C168.449282,4.28996644 169.398216,0.70364529 170.505304,0 C167.339501,1.35361659 164.427979,3.24219903 161.897125,5.58376585 C156.432788,10.0168098 153.246164,16.6863422 153.221164,23.742354 C149.701653,19.165773 144.62546,16.0542341 138.964572,15.0035334 C140.628502,17.2409656 142.448077,19.3571959 144.409641,21.336341 C147.67028,24.8270046 150.211836,28.9308327 151.888139,33.4118021 C149.220156,29.7486883 145.986058,26.5379345 142.308432,23.9012416 C138.755691,21.3447736 134.541215,19.8782536 130.175643,19.6793699 C125.829054,19.5959026 121.496997,20.2088759 117.342452,21.4952287 C119.722767,21.9338235 122.131477,22.1993254 124.549825,22.2896669 C128.086347,22.9622418 131.155295,25.1502868 132.954662,28.282001 C134.222031,31.2292384 135.27907,34.2633298 136.117773,37.3612951 C135.056874,36.1346265 133.884463,35.0099816 132.615757,34.0019563 C130.310085,32.0920352 127.64309,30.6712894 124.775762,29.825481 C121.824204,29.0812733 118.773659,28.8131151 115.738303,29.0310428 C117.73982,30.5709794 119.821369,32.0029868 121.974149,33.3210092 C126.492879,36.5214604 128.910399,38.995568 129.565615,40.7206339 C127.312306,40.0350919 124.996111,39.5788338 122.651959,39.3587398 C120.499588,39.2423695 118.342546,39.2423695 116.190176,39.3587398 C110.857526,39.3606917 105.545508,40.0239559 100.374622,41.3334862 C94.9852421,42.7550211 90.0958833,45.6550612 86.2535925,49.709135 C86.0050624,49.9815138 87.247713,49.709135 90.004138,48.8693003 C91.5630997,48.4153356 93.8224644,47.6889921 96.7822323,46.7583644 C102.905111,46.327098 106.113409,46.1228138 106.42972,46.1228138 C109.571395,45.9717956 112.714946,46.3790448 115.715709,47.3258203 C117.688474,47.9618004 119.62016,48.7198579 121.499683,49.5956438 C122.96827,50.2992891 123.510517,50.7078573 123.149019,50.7305556 C119.323161,49.1416791 112.462224,50.1479675 102.566206,53.7494208 C93.528747,57.623253 89.0853297,59.5374708 89.235954,59.4920743 C92.8554685,58.7444574 96.5440347,58.3868289 100.23906,58.4252573 C102.972892,58.4252573 106.67825,58.6749379 111.355135,59.0381096 C107.536809,62.7152237 101.639867,64.6899702 93.6643089,64.9169525 C86.5247163,64.4175914 82.9775136,64.190609 83,64.281402 C86.5332045,68.0308798 90.5355553,71.3040423 94.9069595,74.0189448 C99.5293802,76.598657 104.759278,77.8768951 110.044703,77.7187572 C113.961455,77.6739233 117.847955,77.0231748 121.567464,75.7894072 C125.128672,74.5478747 128.56349,72.966929 131.82498,71.0681743 L129.678583,72.9975243 C124.120057,77.9902338 117.824467,82.0867618 111.01623,85.1410801 C110.7677,85.1410801 110.677326,85.4134589 110.790294,85.6404412 C110.876774,85.9054896 111.155367,86.0554266 111.422916,85.9809148 C116.602586,85.233761 121.576433,83.4342695 126.041006,80.692226 C130.36757,77.9516616 134.545781,74.9815526 138.557887,71.7945178 C141.946934,69.2750137 144.658171,67.2548708 146.781974,66.0518643 C149.68276,64.3081178 152.796571,62.9500104 156.04537,62.0115784 C159.96214,61.0344633 164.078058,61.2317424 167.884441,62.5790343 C171.620479,63.8103059 175.153575,65.5926813 178.367894,67.8677231 C178.657552,68.1105819 178.986032,68.3024428 179.339421,68.435179 C187.593633,65.060708 192.46633,63.1691884 193.957511,62.7606202 C198.422595,61.3595516 203.20677,61.3595516 207.671855,62.7606202 C210.983689,64.0304394 214.084271,65.7983756 216.867469,68.0039125 C218.765336,69.3885049 221.521761,71.5675354 225.136744,74.4275131 C231.216402,78.6630163 238.50866,80.7834951 245.900306,80.4652436 C247.459268,82.1903095 251.571312,82.144913 258.259032,80.4652436 C260.118761,80.0437672 261.940135,79.4667332 263.704101,78.7401778 C264.969345,78.1500236 264.833783,77.991136 263.252228,78.2862131 C261.165302,78.7192984 259.030357,78.8719551 256.903413,78.7401778 C260.831782,77.5451784 264.674147,76.081506 268.403579,74.3594184 C274.41349,71.6583284 277.960692,69.5473925 279,68.049309 C276.492105,68.049309 273.645306,68.049309 270.504789,67.7088355 C265.641503,67.5267333 260.853807,66.4416293 256.383759,64.5083843 C254.242504,63.4338169 251.960438,62.6696072 249.605664,62.2385608 L255.321857,60.9901579 C258.770008,59.9177278 261.95634,58.1316168 264.675627,55.7468655 C266.467741,54.5894092 268.07505,53.1659811 269.442887,51.5249938 C270.608176,50.5795253 271.588763,49.4250812 272.334874,48.1202585 C272.334874,48.1202585 268.787671,48.2564479 261.625485,48.8012056 C256.144512,49.4547538 250.60367,49.4166271 245.132122,48.6877144 L242.285323,48.0521638 L244.228376,47.5981991 C247.527049,46.7961948 251.096845,43.9891797 254.937765,39.1771539 C258.213844,35.0460751 259.930961,32.3676833 260.04393,30.8469016 C256.290503,32.1790222 252.466279,33.3005314 248.58895,34.2062404 C239.754834,36.4760639 232.773397,36.6349515 227.441296,35.0006786 C230.501404,34.5447338 233.446369,33.5046017 236.117257,31.9364169 C238.820871,30.3566517 241.713462,29.1286652 244.725437,28.282001 C240.523018,28.1912081 237.179158,28.1912081 234.693857,28.282001 C229.314095,28.5957669 223.997727,29.6105526 218.878304,31.3008663 C224.95627,27.3640748 231.766426,24.7077113 238.896276,23.4926734 C227.079798,21.5406252 218.561993,21.2228499 213.433235,22.6982352 C209.22015,23.7587165 205.302779,25.7691614 201.978255,28.5770781 C202.63844,25.4973658 204.016767,22.6190397 205.999925,20.1787311 C208.431846,17.3717138 211.255163,14.9328806 214.382168,12.937994 C216.481677,11.2228631 218.808543,9.80958563 221.295824,8.73882053"/>
        <path fill="#231815" fill-rule="nonzero" d="M179.97,68.05 C180.036386,67.9984041 180.110678,67.9578813 180.19,67.93 L179.81,68.07 L179.97,68.07"/>
      </g>
    </g>
  </g>
</svg>
